<svg xmlns="http://www.w3.org/2000/svg" xmlns:xlink="http://www.w3.org/1999/xlink" width="54.438" height="59.945" viewBox="0 0 54.438 59.945">
  <defs>
    <filter id="Rectangle_6" x="0" y="0" width="54.438" height="59.945" filterUnits="userSpaceOnUse">
      <feOffset dy="3" input="SourceAlpha"/>
      <feGaussianBlur stdDeviation="3" result="blur"/>
      <feFlood flood-opacity="0.161"/>
      <feComposite operator="in" in2="blur"/>
      <feComposite in="SourceGraphic"/>
    </filter>
  </defs>
  <g id="Group_29" data-name="Group 29" transform="translate(-390 -16.515)">
    <g id="Group_26" data-name="Group 26" transform="translate(399 22.515)">
      <g id="Group_33" data-name="Group 33">
        <g id="Group_34" data-name="Group 34">
          <path id="Path_8" data-name="Path 8" d="M10.914,0H33.086A10.668,10.668,0,0,1,44,10.4V31.541a10.668,10.668,0,0,1-10.914,10.4H10.914A10.668,10.668,0,0,1,0,31.541V10.4A10.668,10.668,0,0,1,10.914,0Z" fill="none"/>
          <g transform="matrix(1, 0, 0, 1, -9, -6)" filter="url(#Rectangle_6)">
            <rect id="Rectangle_6-2" data-name="Rectangle 6" width="36.438" height="41.945" rx="18.219" transform="translate(9 6)" fill="none"/>
          </g>
        </g>
      </g>
    </g>
    <g id="Group_35" data-name="Group 35" transform="translate(399 20.46)">
      <g id="Group_32" data-name="Group 32" transform="translate(0)">
        <g id="Group_31" data-name="Group 31">
          <path id="Path_1" data-name="Path 1" d="M12.9,1.924a3.276,3.276,0,0,1,5.968,0L31.3,26.01c1.322,2.561-.335,5.759-2.984,5.759H3.449c-2.65,0-4.307-3.2-2.984-5.759l6.85-13.268Z" transform="translate(36.666 6.115) rotate(90)" fill="rgba(192,23,252,0.78)"/>
          <path id="Path_2" data-name="Path 2" d="M12.9,1.924a3.276,3.276,0,0,1,5.968,0L31.3,26.01c1.322,2.561-.335,5.759-2.984,5.759H3.449c-2.65,0-4.307-3.2-2.984-5.759l6.85-13.268Z" transform="translate(35.967 6.115) rotate(90)" fill="rgba(192,23,252,0.78)"/>
          <path id="Path_6" data-name="Path 6" d="M12.9,1.924a3.276,3.276,0,0,1,5.968,0L31.3,26.01c1.322,2.561-.335,5.759-2.984,5.759H3.449c-2.65,0-4.307-3.2-2.984-5.759l6.85-13.268Z" transform="translate(34.919 6.115) rotate(90)" fill="rgba(192,23,252,0.78)"/>
          <path id="Path_7" data-name="Path 7" d="M17.867,2.665a4.537,4.537,0,0,1,8.266,0L43.356,36.023C45.188,39.571,42.893,44,39.223,44H4.777c-3.67,0-5.965-4.429-4.133-7.977l9.487-18.375Z" transform="translate(44) rotate(90)" fill="rgba(23,138,252,0.76)"/>
          <path id="Path_5" data-name="Path 5" d="M12.9,1.924a3.276,3.276,0,0,1,5.968,0L31.3,26.01c1.322,2.561-.335,5.759-2.984,5.759H3.449c-2.65,0-4.307-3.2-2.984-5.759l6.85-13.268Z" transform="translate(35.268 6.272) rotate(90)" fill="rgba(23,138,252,0.57)"/>
        </g>
      </g>
      <text id="f" transform="translate(15.716 27.5)" fill="#fff" stroke="#fff" stroke-width="1" font-size="17" font-family="SegoeScript, Segoe Script"><tspan x="-6.583" y="0">f</tspan></text>
    </g>
  </g>
</svg>
