<?xml version="1.0" encoding="utf-8"?><svg xmlns="http://www.w3.org/2000/svg" xmlns:xlink="http://www.w3.org/1999/xlink"><defs><svg viewBox="0 0 24 24" id="access-time" xmlns="http://www.w3.org/2000/svg"><path d="M11.99 2C6.47 2 2 6.48 2 12s4.47 10 9.99 10C17.52 22 22 17.52 22 12S17.52 2 11.99 2zM12 20c-4.42 0-8-3.58-8-8s3.58-8 8-8 8 3.58 8 8-3.58 8-8 8zm.5-13H11v6l5.25 3.15.75-1.23-4.5-2.67z"/></svg><svg viewBox="0 0 24 24" id="add" xmlns="http://www.w3.org/2000/svg"><path d="M19 13h-6v6h-2v-6H5v-2h6V5h2v6h6v2z"/></svg><svg viewBox="0 0 24 24" id="add-box" xmlns="http://www.w3.org/2000/svg"><path d="M19 3H5a2 2 0 0 0-2 2v14a2 2 0 0 0 2 2h14c1.1 0 2-.9 2-2V5c0-1.1-.9-2-2-2zm-2 10h-4v4h-2v-4H7v-2h4V7h2v4h4v2z"/></svg><svg viewBox="0 0 40 40" id="add-star-custom" xmlns="http://www.w3.org/2000/svg"><path d="M20 32.004l-11.7 6.11 2.192-13.016-9.426-9.243 13.059-1.933L20 2.102l5.875 11.82 13.059 1.933-9.426 9.243 2.191 13.015z" fill="#98ccfd"/><path d="M20 3.227l5.313 10.683.23.469.516.074 11.804 1.75-8.523 8.356-.371.363.086.515 1.984 11.766-10.578-5.523-.461-.24-.465.243-10.574 5.52 1.984-11.767.086-.515-.375-.363-8.52-8.356 11.805-1.746.516-.078.23-.469L20 3.227M20 .98l-6.207 12.485L0 15.512l9.957 9.758-2.316 13.75L20 32.566l12.36 6.454-2.317-13.75L40 15.512l-13.793-2.047z" fill="#4788c7"/><path d="M14 22h12m-6-6v12" fill="none" stroke-width="2" stroke="#fff" stroke-miterlimit="10"/></svg><svg viewBox="0 0 24 24" id="ads-custom" xmlns="http://www.w3.org/2000/svg"><path d="M22 22L16 3H8L2 22h6l6.527-5.594L16 22zM9.578 16L12 6.8l2.422 9.2z"/></svg><svg viewBox="0 0 24 24" id="all-inclusive-custom" xmlns="http://www.w3.org/2000/svg"><path d="M18.6 6.62c-1.44 0-2.8.56-3.77 1.53L12 10.66 10.48 12h.01L7.8 14.39c-.64.64-1.49.99-2.4.99-1.87 0-3.39-1.51-3.39-3.38S3.53 8.62 5.4 8.62c.91 0 1.76.35 2.44 1.03l1.13 1 1.51-1.34L9.22 8.2A5.37 5.37 0 0 0 5.4 6.62C2.42 6.62 0 9.04 0 12s2.42 5.38 5.4 5.38c1.44 0 2.8-.56 3.77-1.53l2.83-2.5.01.01L13.52 12h-.01l2.69-2.39c.64-.64 1.49-.99 2.4-.99 1.87 0 3.39 1.51 3.39 3.38s-1.52 3.38-3.39 3.38c-.9 0-1.76-.35-2.44-1.03l-1.14-1.01-1.51 1.34 1.27 1.12a5.386 5.386 0 0 0 3.82 1.57c2.98 0 5.4-2.41 5.4-5.38s-2.42-5.37-5.4-5.37z"/><path fill="none" d="M0 0h24v24H0V0z"/></svg><svg viewBox="0 0 64 64" id="archive-file-custom" xmlns="http://www.w3.org/2000/svg"><path d="M21.656 4c-1.336 0-2.59.52-3.535 1.465L9.465 14.12A4.964 4.964 0 0 0 8 17.656V57c0 1.652 1.348 3 3 3h40c1.652 0 3-1.348 3-3V7c0-1.652-1.348-3-3-3zM22 6h14v21.594A6.95 6.95 0 0 0 33.227 27h-.454c-.984 0-1.914.223-2.773.594V9a1 1 0 1 0-2 0v19.902a6.965 6.965 0 0 0-2.047 3.524l-1.078 4.672a3.978 3.978 0 0 0 .766 3.39A3.982 3.982 0 0 0 28.77 42h8.46c1.227 0 2.364-.55 3.13-1.512a3.978 3.978 0 0 0 .765-3.39l-1.078-4.672A6.938 6.938 0 0 0 38 28.902V6h13c.55 0 1 .45 1 1v50c0 .55-.45 1-1 1H11c-.55 0-1-.45-1-1V18h9c1.652 0 3-1.348 3-3zm-2 .5V15c0 .55-.45 1-1 1h-8.5c.11-.164.234-.32.379-.465l8.656-8.656c.145-.14.3-.27.465-.379zM32 8a1 1 0 1 0 0 2h2a1 1 0 1 0 0-2zm0 5a1 1 0 1 0 0 2h2a1 1 0 1 0 0-2zm0 5a1 1 0 1 0 0 2h2a1 1 0 1 0 0-2zm0 5a1 1 0 1 0 0 2h2a1 1 0 1 0 0-2zm.773 6h.454a4.972 4.972 0 0 1 4.87 3.875l1.079 4.676c.14.597 0 1.215-.38 1.695A2.008 2.008 0 0 1 37.23 40h-8.46a2 2 0 0 1-1.946-2.45l1.078-4.675A4.975 4.975 0 0 1 32.773 29zM31 34a1 1 0 1 0 0 2h4a1 1 0 1 0 0-2zM13 52a1 1 0 1 0 0 2h4a1 1 0 1 0 0-2zm8 0a1 1 0 1 0 0 2h28a1 1 0 1 0 0-2z"/></svg><svg viewBox="0 0 24 24" id="arrow-back" xmlns="http://www.w3.org/2000/svg"><path d="M20 11H7.83l5.59-5.59L12 4l-8 8 8 8 1.41-1.41L7.83 13H20v-2z"/></svg><svg viewBox="0 0 24 24" id="arrow-drop-down" xmlns="http://www.w3.org/2000/svg"><path d="M7 10l5 5 5-5z"/></svg><svg viewBox="0 0 24 24" id="assignment" xmlns="http://www.w3.org/2000/svg"><path d="M19 3h-4.18C14.4 1.84 13.3 1 12 1c-1.3 0-2.4.84-2.82 2H5c-1.1 0-2 .9-2 2v14c0 1.1.9 2 2 2h14c1.1 0 2-.9 2-2V5c0-1.1-.9-2-2-2zm-7 0c.55 0 1 .45 1 1s-.45 1-1 1-1-.45-1-1 .45-1 1-1zm2 14H7v-2h7v2zm3-4H7v-2h10v2zm0-4H7V7h10v2z"/></svg><svg viewBox="0 0 24 24" id="attachment" xmlns="http://www.w3.org/2000/svg"><path d="M2 12.5C2 9.46 4.46 7 7.5 7H18c2.21 0 4 1.79 4 4s-1.79 4-4 4H9.5a2.5 2.5 0 0 1 0-5H17v2H9.41c-.55 0-.55 1 0 1H18c1.1 0 2-.9 2-2s-.9-2-2-2H7.5C5.57 9 4 10.57 4 12.5S5.57 16 7.5 16H17v2H7.5C4.46 18 2 15.54 2 12.5z"/></svg><svg viewBox="0 0 64 64" id="audio-file-custom" xmlns="http://www.w3.org/2000/svg"><path d="M21.656 4a4.96 4.96 0 0 0-3.535 1.465L9.465 14.12A4.964 4.964 0 0 0 8 17.656V57c0 1.652 1.348 3 3 3h40c1.652 0 3-1.348 3-3V7c0-1.652-1.348-3-3-3zM22 6h29c.55 0 1 .45 1 1v50c0 .55-.45 1-1 1H11c-.55 0-1-.45-1-1V18h9c1.652 0 3-1.348 3-3zm-2 .5V15c0 .55-.45 1-1 1h-8.5c.11-.164.234-.32.379-.465l8.656-8.656c.145-.145.3-.27.465-.379zm22.781 11.523l-18 4A1.003 1.003 0 0 0 24 23v14c-3.309 0-6 2.242-6 5s2.691 5 6 5 6-2.242 6-5V29.91l8-1.773V33c-3.309 0-6 2.242-6 5s2.691 5 6 5 6-2.242 6-5V19a.998.998 0 0 0-1.219-.977zM42 20.246V38c0 1.652-1.793 3-4 3s-4-1.348-4-3 1.793-3 4-3c.281 0 .563.023.84.066a.998.998 0 0 0 1.16-.988v-7.187a.998.998 0 0 0-.375-.782 1.02 1.02 0 0 0-.844-.199l-10 2.227a1.002 1.002 0 0 0-.781.972V42c0 1.652-1.793 3-4 3s-4-1.348-4-3 1.793-3 4-3c.281 0 .563.023.84.066a.994.994 0 0 0 1.16-.988V23.801zM13 52a1 1 0 0 0-1 1v2a1 1 0 1 0 2 0v-2a1 1 0 0 0-1-1zm5 0a1 1 0 0 0-1 1v2a1 1 0 1 0 2 0v-2a1 1 0 0 0-1-1zm5 0a1 1 0 0 0-1 1v2a1 1 0 1 0 2 0v-2a1 1 0 0 0-1-1zm5 0a1 1 0 0 0-1 1v2a1 1 0 1 0 2 0v-2a1 1 0 0 0-1-1zm5 0a1 1 0 0 0-1 1v2a1 1 0 1 0 2 0v-2a1 1 0 0 0-1-1zm5 0a1 1 0 0 0-1 1v2a1 1 0 1 0 2 0v-2a1 1 0 0 0-1-1zm5 0a1 1 0 0 0-1 1v2a1 1 0 1 0 2 0v-2a1 1 0 0 0-1-1zm5 0a1 1 0 0 0-1 1v2a1 1 0 1 0 2 0v-2a1 1 0 0 0-1-1z"/></svg><svg viewBox="0 0 24 24" id="cancel" xmlns="http://www.w3.org/2000/svg"><path d="M12 2C6.47 2 2 6.47 2 12s4.47 10 10 10 10-4.47 10-10S17.53 2 12 2zm5 13.59L15.59 17 12 13.41 8.41 17 7 15.59 10.59 12 7 8.41 8.41 7 12 10.59 15.59 7 17 8.41 13.41 12 17 15.59z"/></svg><svg viewBox="0 0 50 50" id="check" xmlns="http://www.w3.org/2000/svg"><path fill="none" stroke="#00B9F9" stroke-width="6" d="M11 28.15L18.891 36 40 15"/></svg><svg viewBox="0 0 24 24" id="check" xmlns="http://www.w3.org/2000/svg"><path d="M9 16.17L4.83 12l-1.42 1.41L9 19 21 7l-1.41-1.41z"/></svg><svg viewBox="0 0 24 24" id="check-circle" xmlns="http://www.w3.org/2000/svg"><path d="M12 2C6.48 2 2 6.48 2 12s4.48 10 10 10 10-4.48 10-10S17.52 2 12 2zm-2 15l-5-5 1.41-1.41L10 14.17l7.59-7.59L19 8l-9 9z"/></svg><svg viewBox="0 0 24 24" id="close" xmlns="http://www.w3.org/2000/svg"><path d="M19 6.41L17.59 5 12 10.59 6.41 5 5 6.41 10.59 12 5 17.59 6.41 19 12 13.41 17.59 19 19 17.59 13.41 12z"/></svg><svg viewBox="0 0 24 24" id="cloud-circle" xmlns="http://www.w3.org/2000/svg"><path d="M12 2C6.48 2 2 6.48 2 12s4.48 10 10 10 10-4.48 10-10S17.52 2 12 2zm4.5 14H8c-1.66 0-3-1.34-3-3s1.34-3 3-3l.14.01A3.98 3.98 0 0 1 12 7c2.21 0 4 1.79 4 4h.5a2.5 2.5 0 0 1 0 5z"/></svg><svg viewBox="0 0 24 24" id="cloud-data-custom" xmlns="http://www.w3.org/2000/svg"><defs><path id="asa" d="M0 0h24v24H0V0z"/></defs><clipPath id="asb"><use xlink:href="#asa" overflow="visible"/></clipPath><path d="M9 11.24V7.5a2.5 2.5 0 0 1 5 0v3.74c1.21-.81 2-2.18 2-3.74C16 5.01 13.99 3 11.5 3S7 5.01 7 7.5c0 1.56.79 2.93 2 3.74zm9.84 4.63l-4.54-2.26c-.17-.07-.35-.11-.54-.11H13v-6c0-.83-.67-1.5-1.5-1.5S10 6.67 10 7.5v10.74l-3.43-.72c-.08-.01-.15-.03-.24-.03-.31 0-.59.13-.79.33l-.79.8 4.94 4.94c.27.27.65.44 1.06.44h6.79c.75 0 1.33-.55 1.44-1.28l.75-5.27c.01-.07.02-.14.02-.2 0-.62-.38-1.16-.91-1.38z" clip-path="url(#asb)"/></svg><svg viewBox="0 0 24 24" id="cloud-upload" xmlns="http://www.w3.org/2000/svg"><path d="M19.35 10.04A7.49 7.49 0 0 0 12 4C9.11 4 6.6 5.64 5.35 8.04A5.994 5.994 0 0 0 0 14c0 3.31 2.69 6 6 6h13c2.76 0 5-2.24 5-5 0-2.64-2.05-4.78-4.65-4.96zM14 13v4h-4v-4H7l5-5 5 5h-3z"/></svg><svg viewBox="0 0 24 24" id="code" xmlns="http://www.w3.org/2000/svg"><path d="M9.4 16.6L4.8 12l4.6-4.6L8 6l-6 6 6 6 1.4-1.4zm5.2 0l4.6-4.6-4.6-4.6L16 6l6 6-6 6-1.4-1.4z"/></svg><svg viewBox="0 0 24 24" id="content-copy" xmlns="http://www.w3.org/2000/svg"><path d="M16 1H4c-1.1 0-2 .9-2 2v14h2V3h12V1zm3 4H8c-1.1 0-2 .9-2 2v14c0 1.1.9 2 2 2h11c1.1 0 2-.9 2-2V7c0-1.1-.9-2-2-2zm0 16H8V7h11v14z"/></svg><svg viewBox="0 0 24 24" id="create-new-folder" xmlns="http://www.w3.org/2000/svg"><path d="M20 6h-8l-2-2H4c-1.11 0-1.99.89-1.99 2L2 18c0 1.11.89 2 2 2h16c1.11 0 2-.89 2-2V8c0-1.11-.89-2-2-2zm-1 8h-3v3h-2v-3h-3v-2h3V9h2v3h3v2z"/></svg><svg viewBox="0 0 24 24" id="credit-card" xmlns="http://www.w3.org/2000/svg"><path d="M20 4H4c-1.11 0-1.99.89-1.99 2L2 18c0 1.11.89 2 2 2h16c1.11 0 2-.89 2-2V6c0-1.11-.89-2-2-2zm0 14H4v-6h16v6zm0-10H4V6h16v2z"/></svg><svg viewBox="0 0 24 24" id="dashboard" xmlns="http://www.w3.org/2000/svg"><path d="M3 13h8V3H3v10zm0 8h8v-6H3v6zm10 0h8V11h-8v10zm0-18v6h8V3h-8z"/></svg><svg viewBox="0 0 64 64" id="default-file-custom" xmlns="http://www.w3.org/2000/svg"><path d="M23.656 4c-1.336 0-2.59.52-3.535 1.465l-8.656 8.656A4.964 4.964 0 0 0 10 17.656V57c0 1.652 1.348 3 3 3h40c1.652 0 3-1.348 3-3V7c0-1.652-1.348-3-3-3zM24 6h29c.55 0 1 .45 1 1v50c0 .55-.45 1-1 1H13c-.55 0-1-.45-1-1V18h9c1.652 0 3-1.348 3-3zm-2 .5V15c0 .55-.45 1-1 1h-8.5a2.82 2.82 0 0 1 .379-.465l8.656-8.656c.145-.14.3-.266.465-.379zM21 22c-.55 0-1 .45-1 1s.45 1 1 1h16c.55 0 1-.45 1-1s-.45-1-1-1zm20 0c-.55 0-1 .45-1 1s.45 1 1 1h4c.55 0 1-.45 1-1s-.45-1-1-1zm-20 4c-.55 0-1 .45-1 1s.45 1 1 1h20c.55 0 1-.45 1-1s-.45-1-1-1zm0 6c-.55 0-1 .45-1 1s.45 1 1 1h22c.55 0 1-.45 1-1s-.45-1-1-1zm0 4c-.55 0-1 .45-1 1s.45 1 1 1h12c.55 0 1-.45 1-1s-.45-1-1-1zm-6 14c-.55 0-1 .45-1 1v2c0 .55.45 1 1 1s1-.45 1-1v-2c0-.55-.45-1-1-1zm5 0c-.55 0-1 .45-1 1v2c0 .55.45 1 1 1s1-.45 1-1v-2c0-.55-.45-1-1-1zm5 0c-.55 0-1 .45-1 1v2c0 .55.45 1 1 1s1-.45 1-1v-2c0-.55-.45-1-1-1zm5 0c-.55 0-1 .45-1 1v2c0 .55.45 1 1 1s1-.45 1-1v-2c0-.55-.45-1-1-1zm5 0c-.55 0-1 .45-1 1v2c0 .55.45 1 1 1s1-.45 1-1v-2c0-.55-.45-1-1-1zm5 0c-.55 0-1 .45-1 1v2c0 .55.45 1 1 1s1-.45 1-1v-2c0-.55-.45-1-1-1zm5 0c-.55 0-1 .45-1 1v2c0 .55.45 1 1 1s1-.45 1-1v-2c0-.55-.45-1-1-1zm5 0c-.55 0-1 .45-1 1v2c0 .55.45 1 1 1s1-.45 1-1v-2c0-.55-.45-1-1-1z"/></svg><svg viewBox="0 0 24 24" id="delete" xmlns="http://www.w3.org/2000/svg"><path d="M6 19c0 1.1.9 2 2 2h8c1.1 0 2-.9 2-2V7H6v12zM19 4h-3.5l-1-1h-5l-1 1H5v2h14V4z"/></svg><svg viewBox="0 0 24 24" id="delete-forever" xmlns="http://www.w3.org/2000/svg"><path d="M6 19c0 1.1.9 2 2 2h8c1.1 0 2-.9 2-2V7H6v12zm2.46-7.12l1.41-1.41L12 12.59l2.12-2.12 1.41 1.41L13.41 14l2.12 2.12-1.41 1.41L12 15.41l-2.12 2.12-1.41-1.41L10.59 14l-2.13-2.12zM15.5 4l-1-1h-5l-1 1H5v2h14V4z"/></svg><svg viewBox="0 0 24 24" id="drag-handle" xmlns="http://www.w3.org/2000/svg"><path d="M20 9H4v2h16V9zM4 15h16v-2H4v2z"/></svg><svg viewBox="0 0 48 48" id="drop-custom" xmlns="http://www.w3.org/2000/svg"><path stroke="#E0E0E0" d="M24 44c-7.168 0-13-5.816-13-12.971C11 24 24 4 24 4s13 20 13 27.029C37 38.184 31.168 44 24 44z"/></svg><svg viewBox="0 0 24 24" id="edit" xmlns="http://www.w3.org/2000/svg"><path d="M3 17.25V21h3.75L17.81 9.94l-3.75-3.75L3 17.25zM20.71 7.04a.996.996 0 0 0 0-1.41l-2.34-2.34a.996.996 0 0 0-1.41 0l-1.83 1.83 3.75 3.75 1.83-1.83z"/></svg><svg viewBox="0 0 24 24" id="error" xmlns="http://www.w3.org/2000/svg"><path d="M12 2C6.48 2 2 6.48 2 12s4.48 10 10 10 10-4.48 10-10S17.52 2 12 2zm1 15h-2v-2h2v2zm0-4h-2V7h2v6z"/></svg><svg viewBox="0 0 24 24" id="exit-to-app" xmlns="http://www.w3.org/2000/svg"><path d="M10.09 15.59L11.5 17l5-5-5-5-1.41 1.41L12.67 11H3v2h9.67l-2.58 2.59zM19 3H5a2 2 0 0 0-2 2v4h2V5h14v14H5v-4H3v4a2 2 0 0 0 2 2h14c1.1 0 2-.9 2-2V5c0-1.1-.9-2-2-2z"/></svg><svg viewBox="0 0 24 24" id="facebook-custom" xmlns="http://www.w3.org/2000/svg"><path d="M22.676 0H1.324C.593 0 0 .593 0 1.324v21.352C0 23.408.593 24 1.324 24h11.494v-9.294H9.689v-3.621h3.129V8.41c0-3.099 1.894-4.785 4.659-4.785 1.325 0 2.464.097 2.796.141v3.24h-1.921c-1.5 0-1.792.721-1.792 1.771v2.311h3.584l-.465 3.63H16.56V24h6.115c.733 0 1.325-.592 1.325-1.324V1.324C24 .593 23.408 0 22.676 0"/></svg><svg viewBox="0 0 24 24" id="file-download" xmlns="http://www.w3.org/2000/svg"><path d="M19 9h-4V3H9v6H5l7 7 7-7zM5 18v2h14v-2H5z"/></svg><svg viewBox="0 0 24 24" id="folder" xmlns="http://www.w3.org/2000/svg"><path d="M10 4H4c-1.1 0-1.99.9-1.99 2L2 18c0 1.1.9 2 2 2h16c1.1 0 2-.9 2-2V8c0-1.1-.9-2-2-2h-8l-2-2z"/></svg><svg viewBox="0 0 491 367" id="folder-file-custom" xmlns="http://www.w3.org/2000/svg"><defs><path id="bka" d="M467.114.438V367H.536V.438z"/><path id="bkc" d="M0 .438V367h466.578V.438z"/><linearGradient x1="50%" y1="0%" x2="50%" y2="100%" id="bkd"><stop stop-color="#8AECF9" offset="0%"/><stop stop-color="#52D5F0" offset="100%"/></linearGradient></defs><g fill="none" fill-rule="evenodd"><g transform="translate(23)"><mask id="bkb" fill="#fff"><use xlink:href="#bka"/></mask><path d="M170.83 49.482V25.093c0-13.616-11.038-24.655-24.655-24.655H25.191C11.575.438.536 11.477.536 25.093v317.252C.536 355.962 11.576 367 25.191 367H442.46c13.616 0 24.655-11.038 24.655-24.655V98.792c0-13.617-11.039-24.655-24.655-24.655H195.485c-13.617 0-24.655-11.038-24.655-24.655" fill="#00B9F9" mask="url(#bkb)"/></g><mask id="bke" fill="#fff"><use xlink:href="#bkc"/></mask><path d="M170.294 49.482V25.093c0-13.616-11.038-24.655-24.655-24.655H24.655C11.039.438 0 11.477 0 25.093v317.252C0 355.962 11.039 367 24.655 367h417.268c13.616 0 24.655-11.038 24.655-24.655V98.792c0-13.617-11.04-24.655-24.655-24.655H194.949c-13.617 0-24.655-11.038-24.655-24.655" fill="url(#bkd)" mask="url(#bke)"/></g></svg><svg viewBox="0 0 24 24" id="format-align-center" xmlns="http://www.w3.org/2000/svg"><path d="M7 15v2h10v-2H7zm-4 6h18v-2H3v2zm0-8h18v-2H3v2zm4-6v2h10V7H7zM3 3v2h18V3H3z"/></svg><svg viewBox="0 0 24 24" id="format-align-left" xmlns="http://www.w3.org/2000/svg"><path d="M15 15H3v2h12v-2zm0-8H3v2h12V7zM3 13h18v-2H3v2zm0 8h18v-2H3v2zM3 3v2h18V3H3z"/></svg><svg viewBox="0 0 24 24" id="format-align-right" xmlns="http://www.w3.org/2000/svg"><path d="M3 21h18v-2H3v2zm6-4h12v-2H9v2zm-6-4h18v-2H3v2zm6-4h12V7H9v2zM3 3v2h18V3H3z"/></svg><svg viewBox="0 0 24 24" id="format-bold" xmlns="http://www.w3.org/2000/svg"><path d="M15.6 10.79c.97-.67 1.65-1.77 1.65-2.79 0-2.26-1.75-4-4-4H7v14h7.04c2.09 0 3.71-1.7 3.71-3.79 0-1.52-.86-2.82-2.15-3.42zM10 6.5h3c.83 0 1.5.67 1.5 1.5s-.67 1.5-1.5 1.5h-3v-3zm3.5 9H10v-3h3.5c.83 0 1.5.67 1.5 1.5s-.67 1.5-1.5 1.5z"/></svg><svg viewBox="0 0 24 24" id="format-clear" xmlns="http://www.w3.org/2000/svg"><path d="M3.27 5L2 6.27l6.97 6.97L6.5 19h3l1.57-3.66L16.73 21 18 19.73 3.55 5.27 3.27 5zM6 5v.18L8.82 8h2.4l-.72 1.68 2.1 2.1L14.21 8H20V5H6z"/></svg><svg viewBox="0 0 24 24" id="format-color-fill" xmlns="http://www.w3.org/2000/svg"><path d="M16.56 8.94L7.62 0 6.21 1.41l2.38 2.38-5.15 5.15a1.49 1.49 0 0 0 0 2.12l5.5 5.5c.29.29.68.44 1.06.44s.77-.15 1.06-.44l5.5-5.5c.59-.58.59-1.53 0-2.12zM5.21 10L10 5.21 14.79 10H5.21zM19 11.5s-2 2.17-2 3.5c0 1.1.9 2 2 2s2-.9 2-2c0-1.33-2-3.5-2-3.5z"/><path fill-opacity=".36" d="M0 20h24v4H0z"/></svg><svg viewBox="0 0 24 24" id="format-color-text" xmlns="http://www.w3.org/2000/svg"><path fill-opacity=".36" d="M0 20h24v4H0z"/><path d="M11 3L5.5 17h2.25l1.12-3h6.25l1.12 3h2.25L13 3h-2zm-1.38 9L12 5.67 14.38 12H9.62z"/></svg><svg viewBox="0 0 24 24" id="format-italic" xmlns="http://www.w3.org/2000/svg"><path d="M10 4v3h2.21l-3.42 8H6v3h8v-3h-2.21l3.42-8H18V4z"/></svg><svg viewBox="0 0 24 24" id="format-list-bulleted" xmlns="http://www.w3.org/2000/svg"><path d="M4 10.5c-.83 0-1.5.67-1.5 1.5s.67 1.5 1.5 1.5 1.5-.67 1.5-1.5-.67-1.5-1.5-1.5zm0-6c-.83 0-1.5.67-1.5 1.5S3.17 7.5 4 7.5 5.5 6.83 5.5 6 4.83 4.5 4 4.5zm0 12c-.83 0-1.5.68-1.5 1.5s.68 1.5 1.5 1.5 1.5-.68 1.5-1.5-.67-1.5-1.5-1.5zM7 19h14v-2H7v2zm0-6h14v-2H7v2zm0-8v2h14V5H7z"/></svg><svg viewBox="0 0 24 24" id="format-list-numbered" xmlns="http://www.w3.org/2000/svg"><path d="M2 17h2v.5H3v1h1v.5H2v1h3v-4H2v1zm1-9h1V4H2v1h1v3zm-1 3h1.8L2 13.1v.9h3v-1H3.2L5 10.9V10H2v1zm5-6v2h14V5H7zm0 14h14v-2H7v2zm0-6h14v-2H7v2z"/></svg><svg viewBox="0 0 24 24" id="format-underlined" xmlns="http://www.w3.org/2000/svg"><path d="M12 17c3.31 0 6-2.69 6-6V3h-2.5v8c0 1.93-1.57 3.5-3.5 3.5S8.5 12.93 8.5 11V3H6v8c0 3.31 2.69 6 6 6zm-7 2v2h14v-2H5z"/></svg><svg viewBox="0 0 24 24" id="google-custom" xmlns="http://www.w3.org/2000/svg"><path d="M12.24 10.285V14.4h6.806c-.275 1.765-2.056 5.174-6.806 5.174-4.095 0-7.439-3.389-7.439-7.574s3.345-7.574 7.439-7.574c2.33 0 3.891.989 4.785 1.849l3.254-3.138C18.189 1.186 15.479 0 12.24 0c-6.635 0-12 5.365-12 12s5.365 12 12 12c6.926 0 11.52-4.869 11.52-11.726 0-.788-.085-1.39-.189-1.989H12.24z"/></svg><svg viewBox="0 0 491 367" id="hosted" xmlns="http://www.w3.org/2000/svg"><defs><path id="bxa" d="M467.114.438V367H.536V.438z"/><path id="bxc" d="M0 .438V367h466.578V.438z"/><linearGradient id="bxd" x1="50%" x2="50%" y1="0%" y2="100%"><stop offset="0%" stop-color="#8AECF9"/><stop offset="100%" stop-color="#52D5F0"/></linearGradient></defs><g fill="none" fill-rule="evenodd"><g transform="translate(23)"><mask id="bxb" fill="#fff"><use xlink:href="#bxa"/></mask><path fill="#00B9F9" d="M170.83 49.482V25.093c0-13.616-11.038-24.655-24.655-24.655H25.191C11.575.438.536 11.477.536 25.093v317.252C.536 355.962 11.576 367 25.191 367H442.46c13.616 0 24.655-11.038 24.655-24.655V98.792c0-13.617-11.039-24.655-24.655-24.655H195.485c-13.617 0-24.655-11.038-24.655-24.655" mask="url(#bxb)"/></g><mask id="bxe" fill="#fff"><use xlink:href="#bxc"/></mask><path fill="url(#bxd)" d="M170.294 49.482V25.093c0-13.616-11.038-24.655-24.655-24.655H24.655C11.039.438 0 11.477 0 25.093v317.252C0 355.962 11.039 367 24.655 367h417.268c13.616 0 24.655-11.038 24.655-24.655V98.792c0-13.617-11.04-24.655-24.655-24.655H194.949c-13.617 0-24.655-11.038-24.655-24.655" mask="url(#bxe)"/><circle cx="234.5" cy="220.5" r="82.5" fill="#FFF" fill-opacity=".535" fill-rule="nonzero" stroke="#10C5EC" stroke-width="3" opacity=".431"/><g stroke="#10C5EC" stroke-linecap="round" stroke-linejoin="round" stroke-width="4" transform="translate(202 188)"><circle cx="33" cy="33" r="33"/><path d="M0 33h66M33.5 0C41.942 9.037 46.74 20.764 47 33c-.26 12.236-5.058 23.963-13.5 33-8.442-9.037-13.24-20.764-13.5-33 .26-12.236 5.058-23.963 13.5-33z"/></g></g></svg><svg viewBox="0 0 24 24" id="image" xmlns="http://www.w3.org/2000/svg"><path d="M21 19V5c0-1.1-.9-2-2-2H5c-1.1 0-2 .9-2 2v14c0 1.1.9 2 2 2h14c1.1 0 2-.9 2-2zM8.5 13.5l2.5 3.01L14.5 12l4.5 6H5l3.5-4.5z"/></svg><svg viewBox="0 0 64 64" id="image-file-custom" xmlns="http://www.w3.org/2000/svg"><path d="M21.656 4c-1.336 0-2.59.52-3.535 1.465L9.465 14.12A4.964 4.964 0 0 0 8 17.656V57c0 1.652 1.348 3 3 3h40c1.652 0 3-1.348 3-3V7c0-1.652-1.348-3-3-3zM22 6h29c.55 0 1 .45 1 1v50c0 .55-.45 1-1 1H11c-.55 0-1-.45-1-1V18h9c1.652 0 3-1.348 3-3zm-2 .5V15c0 .55-.45 1-1 1h-8.5a2.82 2.82 0 0 1 .379-.465l8.656-8.656c.145-.14.3-.266.465-.379zM20 24c-2.207 0-4 1.793-4 4s1.793 4 4 4 4-1.793 4-4-1.793-4-4-4zm0 1.75a2.25 2.25 0 1 1-.001 4.501A2.25 2.25 0 0 1 20 25.75zm17 4.664c-.512 0-1.023.195-1.414.586L29 37.586 26.414 35a2 2 0 0 0-2.828 0l-9 9h-1.543c-.625 0-1.043.398-1.043 1s.523 1 1.043 1H48.98c.52 0 1.043-.398 1.043-1s-.523-1-1.043-1H25.414L37 32.414l8.293 8.293a1 1 0 1 0 1.414-1.414L38.414 31A1.994 1.994 0 0 0 37 30.414zm-12 6L27.586 39l-5 5h-5.172zM13 52c-.55 0-1 .45-1 1v2c0 .55.45 1 1 1s1-.45 1-1v-2c0-.55-.45-1-1-1zm5 0c-.55 0-1 .45-1 1v2c0 .55.45 1 1 1s1-.45 1-1v-2c0-.55-.45-1-1-1zm5 0c-.55 0-1 .45-1 1v2c0 .55.45 1 1 1s1-.45 1-1v-2c0-.55-.45-1-1-1zm5 0c-.55 0-1 .45-1 1v2c0 .55.45 1 1 1s1-.45 1-1v-2c0-.55-.45-1-1-1zm5 0c-.55 0-1 .45-1 1v2c0 .55.45 1 1 1s1-.45 1-1v-2c0-.55-.45-1-1-1zm5 0c-.55 0-1 .45-1 1v2c0 .55.45 1 1 1s1-.45 1-1v-2c0-.55-.45-1-1-1zm5 0c-.55 0-1 .45-1 1v2c0 .55.45 1 1 1s1-.45 1-1v-2c0-.55-.45-1-1-1zm5 0c-.55 0-1 .45-1 1v2c0 .55.45 1 1 1s1-.45 1-1v-2c0-.55-.45-1-1-1z"/></svg><svg viewBox="0 0 24 24" id="info" xmlns="http://www.w3.org/2000/svg"><path d="M12 2C6.48 2 2 6.48 2 12s4.48 10 10 10 10-4.48 10-10S17.52 2 12 2zm1 15h-2v-6h2v6zm0-8h-2V7h2v2z"/></svg><svg viewBox="0 0 24 24" id="insert-drive-file" xmlns="http://www.w3.org/2000/svg"><path d="M6 2c-1.1 0-1.99.9-1.99 2L4 20c0 1.1.89 2 1.99 2H18c1.1 0 2-.9 2-2V8l-6-6H6zm7 7V3.5L18.5 9H13z"/></svg><svg viewBox="0 0 24 24" id="keyboard-arrow-down" xmlns="http://www.w3.org/2000/svg"><path d="M7.41 7.84L12 12.42l4.59-4.58L18 9.25l-6 6-6-6z"/></svg><svg viewBox="0 0 24 24" id="keyboard-arrow-left" xmlns="http://www.w3.org/2000/svg"><path d="M15.41 16.09l-4.58-4.59 4.58-4.59L14 5.5l-6 6 6 6z"/></svg><svg viewBox="0 0 24 24" id="keyboard-arrow-right" xmlns="http://www.w3.org/2000/svg"><path d="M8.59 16.34l4.58-4.59-4.58-4.59L10 5.75l6 6-6 6z"/></svg><svg viewBox="0 0 24 24" id="keyboard-arrow-up" xmlns="http://www.w3.org/2000/svg"><path d="M7.41 15.41L12 10.83l4.59 4.58L18 14l-6-6-6 6z"/></svg><svg viewBox="0 0 24 24" id="keyboard-backspace" xmlns="http://www.w3.org/2000/svg"><path d="M21 11H6.83l3.58-3.59L9 6l-6 6 6 6 1.41-1.41L6.83 13H21z"/></svg><svg viewBox="0 0 24 24" id="link" xmlns="http://www.w3.org/2000/svg"><path d="M3.9 12c0-1.71 1.39-3.1 3.1-3.1h4V7H7c-2.76 0-5 2.24-5 5s2.24 5 5 5h4v-1.9H7c-1.71 0-3.1-1.39-3.1-3.1zM8 13h8v-2H8v2zm9-6h-4v1.9h4c1.71 0 3.1 1.39 3.1 3.1s-1.39 3.1-3.1 3.1h-4V17h4c2.76 0 5-2.24 5-5s-2.24-5-5-5z"/></svg><svg viewBox="0 0 1631 292" id="logo" xmlns="http://www.w3.org/2000/svg"><g fill="none"><path d="M707.6 90.8v116.3c-1.1 37.1-32.2 67.5-69.8 67.5-9.5 0-17.2-7.8-17.2-17.2 0-9.2 7.8-17.2 17.2-17.2 19.2 0 35-15.5 35-35v-2c-10.3 6-22.4 9.5-35 9.5-38.2 0-69.5-31.3-69.5-69.5V90.9c0-9.2 8-17.2 17.2-17.2 9.5 0 17.2 7.8 17.2 17.2v52.3c0 19.2 15.8 35 35 35s35-15.8 35-35V90.9c0-9.5 7.8-17.2 17.2-17.2 9.4 0 17.7 7.6 17.7 17.1zm146.3 54.3c-.6 7.8-4 14.1-14.9 14.1h-88c4.9 14.4 18.1 25 33.9 24.4 9.8-.6 18.4-3.7 25.6-11.2 6.3-6 16.9-6 23 .3 6.9 6.9 6.9 17.2 0 23.6-28.4 28.4-75.5 28.7-102.3-6.9-36.2-48.3-1.4-115.5 53.7-115.8 38.8-.3 70.4 32.4 69 71.5zM753 125.8h63.8c-6-11.2-18.1-19.2-31.9-19.2-14.1 0-25.8 8-31.9 19.2zm252.5 19.6v59.5c0 38.5-31.3 69.8-69.8 69.8-9.5 0-17.2-8-17.2-17.2 0-9.5 7.8-17.2 17.2-17.2 18.7 0 33.9-14.7 35-33.3-10.9 6.6-23.6 10.3-37.1 10.3-39.6 0-71.8-32.2-71.8-71.8 0-39.6 32.2-71.8 71.8-71.8 39.8-.2 71.9 32 71.9 71.7zm-34.4 0c0-20.4-16.9-37.3-37.3-37.3s-37.1 16.9-37.1 37.3 16.7 37.1 37.1 37.1c20.3-.1 37.3-16.8 37.3-37.1zm51.4 0c0-39.6 32.2-71.8 71.8-71.8 39.6 0 71.8 32.2 71.8 71.8 0 39.6-32.2 71.8-71.8 71.8-39.6 0-71.8-32.2-71.8-71.8zm109.1 0c0-20.4-16.9-37.3-37.3-37.3S1057 125 1057 145.4s16.9 37.3 37.3 37.3 37.3-17 37.3-37.3zm195.4.2c0 39.4-32.2 71.5-71.5 71.5-39.6 0-72.1-32.2-72.1-71.5V33.3c0-9.5 7.8-17.2 17.5-17.2 9.5 0 17.2 7.8 17.2 17.2v50.6c10.9-6.6 23.8-10.3 37.3-10.3 39.4-.1 71.6 32.4 71.6 72zm-34.5 0c0-20.7-16.7-37.3-37.1-37.3-20.7 0-37.3 16.7-37.3 37.3 0 20.4 16.7 37.1 37.3 37.1 20.5 0 37.1-16.7 37.1-37.1zm50.9-.2c0-39.6 32.2-71.8 71.8-71.8 39.6 0 71.8 32.2 71.8 71.8 0 39.6-32.2 71.8-71.8 71.8-39.7 0-71.8-32.2-71.8-71.8zm109.1 0c0-20.4-16.9-37.3-37.3-37.3s-37.3 16.9-37.3 37.3 16.9 37.3 37.3 37.3 37.3-17 37.3-37.3zm173 42.5c3.2 3.2 5.2 7.8 5.2 12.1 0 9.8-7.8 17.2-17.2 17.2-4.9 0-9.2-1.7-12.4-4.9l-42.2-42.5-42.5 42.5c-2.9 3.2-7.5 4.9-12.1 4.9-9.8 0-17.2-7.5-17.2-17.2 0-4.6 1.7-9.2 4.9-12.1l42.5-42.5-42.5-42.2c-3.2-3.2-4.9-7.5-4.9-12.3 0-9.5 7.5-17.2 17.2-17.2 4.3 0 8.9 2 12.1 5.2l42.5 42.2 42.2-42.2c3.2-3.2 7.8-5.2 12.4-5.2 9.5 0 17.2 7.8 17.2 17.2 0 4.6-2 9.2-5.2 12.3l-42.2 42.2 42.2 42.5z" fill="#364EDA"/><g fill="#00B9F9"><path d="M236.6 290.6L.1 164.3 236.6 35l236.5 129.3z"/><path d="M473.1 129.4v34.9l-32.7-17.4zm-473 0v34.9l32.3-17.6z"/></g><path fill="#364EDA" d="M236.6 255.7L.1 129.4 236.6.1l236.5 129.3z"/><path fill="#FFF" d="M383.5 127.8l-146.9 78.5-68.4-36.5-18 8.9 86.4 46.1 163.6-87.4z"/></g></svg><svg viewBox="0 0 24 24" id="mail" xmlns="http://www.w3.org/2000/svg"><path d="M20 4H4c-1.1 0-1.99.9-1.99 2L2 18c0 1.1.9 2 2 2h16c1.1 0 2-.9 2-2V6c0-1.1-.9-2-2-2zm0 4l-8 5-8-5V6l8 5 8-5v2z"/></svg><svg viewBox="0 0 24 24" id="menu" xmlns="http://www.w3.org/2000/svg"><path d="M3 18h18v-2H3v2zm0-5h18v-2H3v2zm0-7v2h18V6H3z"/></svg><svg viewBox="0 0 24 24" id="more-vert" xmlns="http://www.w3.org/2000/svg"><path d="M12 8c1.1 0 2-.9 2-2s-.9-2-2-2-2 .9-2 2 .9 2 2 2zm0 2c-1.1 0-2 .9-2 2s.9 2 2 2 2-.9 2-2-.9-2-2-2zm0 6c-1.1 0-2 .9-2 2s.9 2 2 2 2-.9 2-2-.9-2-2-2z"/></svg><svg viewBox="0 0 500 500" id="network-drive-custom" xmlns="http://www.w3.org/2000/svg"><g fill="none"><g fill="#37CAC9"><path d="M250.47 393.603L16.1 268.29 250.47 140l234.37 128.29z"/><path d="M484.84 233.662v34.628l-32.405-17.264zm-468.74 0v34.628l32.008-17.463z"/></g><path fill="#43E6E5" d="M250.5 360L16 234.49 250.5 106 485 234.49z"/><path fill="#FFF" d="M396.434 233l-145.725 77.69-67.853-36.123L165 283.375 250.709 329 413 242.501z"/></g></svg><svg viewBox="0 0 491 367" id="normal-folder" xmlns="http://www.w3.org/2000/svg"><defs><path id="cna" d="M467.114.438V367H.536V.438z"/><path id="cnc" d="M0 .438V367h466.578V.438z"/><linearGradient id="cnd" x1="50%" x2="50%" y1="0%" y2="100%"><stop offset="0%" stop-color="#8AECF9"/><stop offset="100%" stop-color="#52D5F0"/></linearGradient></defs><g fill="none" fill-rule="evenodd"><g transform="translate(23)"><mask id="cnb" fill="#fff"><use xlink:href="#cna"/></mask><path fill="#00B9F9" d="M170.83 49.482V25.093c0-13.616-11.038-24.655-24.655-24.655H25.191C11.575.438.536 11.477.536 25.093v317.252C.536 355.962 11.576 367 25.191 367H442.46c13.616 0 24.655-11.038 24.655-24.655V98.792c0-13.617-11.039-24.655-24.655-24.655H195.485c-13.617 0-24.655-11.038-24.655-24.655" mask="url(#cnb)"/></g><mask id="cne" fill="#fff"><use xlink:href="#cnc"/></mask><path fill="url(#cnd)" d="M170.294 49.482V25.093c0-13.616-11.038-24.655-24.655-24.655H24.655C11.039.438 0 11.477 0 25.093v317.252C0 355.962 11.039 367 24.655 367h417.268c13.616 0 24.655-11.038 24.655-24.655V98.792c0-13.617-11.04-24.655-24.655-24.655H194.949c-13.617 0-24.655-11.038-24.655-24.655" mask="url(#cne)"/></g></svg><svg viewBox="0 0 24 24" id="note" xmlns="http://www.w3.org/2000/svg"><path d="M22 10l-6-6H4c-1.1 0-2 .9-2 2v12.01c0 1.1.9 1.99 2 1.99l16-.01c1.1 0 2-.89 2-1.99v-8zm-7-4.5l5.5 5.5H15V5.5z"/></svg><svg viewBox="0 0 24 24" id="note-add-custom" xmlns="http://www.w3.org/2000/svg"><path fill="none" d="M0 0h24v24H0V0z"/><path d="M14.59 2.59c-.38-.38-.89-.59-1.42-.59H6c-1.1 0-2 .9-2 2v16c0 1.1.89 2 1.99 2H18c1.1 0 2-.9 2-2V8.83c0-.53-.21-1.04-.59-1.41l-4.82-4.83zM15 16h-2v2c0 .55-.45 1-1 1s-1-.45-1-1v-2H9c-.55 0-1-.45-1-1s.45-1 1-1h2v-2c0-.55.45-1 1-1s1 .45 1 1v2h2c.55 0 1 .45 1 1s-.45 1-1 1zm-2-8V3.5L18.5 9H14c-.55 0-1-.45-1-1z"/></svg><svg viewBox="0 0 24 24" id="open-in-new" xmlns="http://www.w3.org/2000/svg"><path d="M19 19H5V5h7V3H5a2 2 0 0 0-2 2v14a2 2 0 0 0 2 2h14c1.1 0 2-.9 2-2v-7h-2v7zM14 3v2h3.59l-9.83 9.83 1.41 1.41L19 6.41V10h2V3h-7z"/></svg><svg viewBox="0 0 40 40" id="password-custom" xmlns="http://www.w3.org/2000/svg"><path d="M27 17.398V9c0-3.867-3.133-7-7-7s-7 3.133-7 7v8.398" fill="none" stroke-width="2" stroke="#4788c7" stroke-miterlimit="10"/><path d="M20 38.5c-6.895 0-12.5-5.605-12.5-12.5S13.105 13.5 20 13.5 32.5 19.105 32.5 26 26.895 38.5 20 38.5z" fill="#98ccfd"/><path d="M20 14c6.617 0 12 5.383 12 12s-5.383 12-12 12S8 32.617 8 26s5.383-12 12-12m0-1c-7.18 0-13 5.82-13 13s5.82 13 13 13 13-5.82 13-13-5.82-13-13-13z" fill="#4788c7"/><path d="M28 26a8 8 0 1 1-16 0 8 8 0 0 1 16 0z" fill="#dff0fe"/><path d="M20 31c-.55 0-1-.45-1-1v-3c0-.55.45-1 1-1s1 .45 1 1v3c0 .55-.45 1-1 1z" fill="#4788c7"/></svg><svg viewBox="0 0 24 24" id="pause" xmlns="http://www.w3.org/2000/svg"><path d="M6 19h4V5H6v14zm8-14v14h4V5h-4z"/></svg><svg viewBox="0 0 64 64" id="pdf-file-custom" xmlns="http://www.w3.org/2000/svg"><path d="M17.656 4c-1.336 0-2.59.52-3.535 1.465L5.465 14.12A4.964 4.964 0 0 0 4 17.656V57c0 1.652 1.348 3 3 3h40c1.652 0 3-1.348 3-3V46h8c1.102 0 2-.898 2-2V24c0-1.102-.898-2-2-2h-8V7c0-1.652-1.348-3-3-3zM18 6h29c.55 0 1 .45 1 1v15H16c-1.102 0-2 .898-2 2v20c0 1.102.898 2 2 2h32v11c0 .55-.45 1-1 1H7c-.55 0-1-.45-1-1V18h9c1.652 0 3-1.348 3-3zm-2 .5V15c0 .55-.45 1-1 1H6.5c.11-.164.234-.32.379-.465l8.656-8.656c.145-.145.3-.27.465-.379zM16 24h42v20H16zm9 4a1 1 0 0 0-1 1v10a1 1 0 1 0 2 0v-3h3c1.652 0 3-1.348 3-3v-2c0-1.652-1.348-3-3-3zm10 0a1 1 0 0 0-1 1v10a1 1 0 0 0 1 1h3c2.207 0 4-1.793 4-4v-4c0-2.207-1.793-4-4-4zm10 0a1 1 0 0 0-1 1v10a1 1 0 1 0 2 0v-3h3a1 1 0 1 0 0-2h-3v-4h4a1 1 0 1 0 0-2zm-19 2h3c.55 0 1 .45 1 1v2c0 .55-.45 1-1 1h-3zm10 0h2c1.102 0 2 .898 2 2v4c0 1.102-.898 2-2 2h-2zM9 52a1 1 0 0 0-1 1v2a1 1 0 1 0 2 0v-2a1 1 0 0 0-1-1zm5 0a1 1 0 0 0-1 1v2a1 1 0 1 0 2 0v-2a1 1 0 0 0-1-1zm5 0a1 1 0 0 0-1 1v2a1 1 0 1 0 2 0v-2a1 1 0 0 0-1-1zm5 0a1 1 0 0 0-1 1v2a1 1 0 1 0 2 0v-2a1 1 0 0 0-1-1zm5 0a1 1 0 0 0-1 1v2a1 1 0 1 0 2 0v-2a1 1 0 0 0-1-1zm5 0a1 1 0 0 0-1 1v2a1 1 0 1 0 2 0v-2a1 1 0 0 0-1-1zm5 0a1 1 0 0 0-1 1v2a1 1 0 1 0 2 0v-2a1 1 0 0 0-1-1zm5 0a1 1 0 0 0-1 1v2a1 1 0 1 0 2 0v-2a1 1 0 0 0-1-1z"/></svg><svg viewBox="0 0 24 24" id="people" xmlns="http://www.w3.org/2000/svg"><path d="M16 11c1.66 0 2.99-1.34 2.99-3S17.66 5 16 5c-1.66 0-3 1.34-3 3s1.34 3 3 3zm-8 0c1.66 0 2.99-1.34 2.99-3S9.66 5 8 5C6.34 5 5 6.34 5 8s1.34 3 3 3zm0 2c-2.33 0-7 1.17-7 3.5V19h14v-2.5c0-2.33-4.67-3.5-7-3.5zm8 0c-.29 0-.62.02-.97.05 1.16.84 1.97 1.97 1.97 3.45V19h6v-2.5c0-2.33-4.67-3.5-7-3.5z"/></svg><svg viewBox="0 0 24 24" id="person" xmlns="http://www.w3.org/2000/svg"><path d="M12 12c2.21 0 4-1.79 4-4s-1.79-4-4-4-4 1.79-4 4 1.79 4 4 4zm0 2c-2.67 0-8 1.34-8 4v2h16v-2c0-2.66-5.33-4-8-4z"/></svg><svg viewBox="0 0 24 24" id="person-add" xmlns="http://www.w3.org/2000/svg"><path d="M15 12c2.21 0 4-1.79 4-4s-1.79-4-4-4-4 1.79-4 4 1.79 4 4 4zm-9-2V7H4v3H1v2h3v3h2v-3h3v-2H6zm9 4c-2.67 0-8 1.34-8 4v2h16v-2c0-2.66-5.33-4-8-4z"/></svg><svg viewBox="0 0 24 24" id="photo-size-select-actual" xmlns="http://www.w3.org/2000/svg"><path d="M21 3H3C2 3 1 4 1 5v14c0 1.1.9 2 2 2h18c1 0 2-1 2-2V5c0-1-1-2-2-2zM5 17l3.5-4.5 2.5 3.01L14.5 11l4.5 6H5z"/></svg><svg viewBox="0 0 24 24" id="pie-chart" xmlns="http://www.w3.org/2000/svg"><path d="M11 2v20c-5.07-.5-9-4.79-9-10s3.93-9.5 9-10zm2.03 0v8.99H22c-.47-4.74-4.24-8.52-8.97-8.99zm0 11.01V22c4.74-.47 8.5-4.25 8.97-8.99h-8.97z"/></svg><svg viewBox="0 0 24 24" id="print" xmlns="http://www.w3.org/2000/svg"><path d="M19 8H5c-1.66 0-3 1.34-3 3v6h4v4h12v-4h4v-6c0-1.66-1.34-3-3-3zm-3 11H8v-5h8v5zm3-7c-.55 0-1-.45-1-1s.45-1 1-1 1 .45 1 1-.45 1-1 1zm-1-9H6v4h12V3z"/></svg><svg viewBox="0 0 24 24" id="priority-high" xmlns="http://www.w3.org/2000/svg"><circle cx="12" cy="19" r="2"/><path d="M10 3h4v12h-4z"/></svg><svg viewBox="0 0 24 24" id="question-answer" xmlns="http://www.w3.org/2000/svg"><path d="M21 6h-2v9H6v2c0 .55.45 1 1 1h11l4 4V7c0-.55-.45-1-1-1zm-4 6V3c0-.55-.45-1-1-1H3c-.55 0-1 .45-1 1v14l4-4h10c.55 0 1-.45 1-1z"/></svg><svg viewBox="0 0 40 40" id="recent-custom" xmlns="http://www.w3.org/2000/svg"><path d="M20 38.5C9.8 38.5 1.5 30.2 1.5 20S9.8 1.5 20 1.5 38.5 9.8 38.5 20 30.2 38.5 20 38.5zm0-34C11.453 4.5 4.5 11.453 4.5 20S11.453 35.5 20 35.5 35.5 28.547 35.5 20 28.547 4.5 20 4.5z" fill="#98ccfd"/><path d="M20 2c9.926 0 18 8.074 18 18s-8.074 18-18 18S2 29.926 2 20 10.074 2 20 2m0 34c8.82 0 16-7.18 16-16S28.82 4 20 4 4 11.18 4 20s7.18 16 16 16m0-35C9.508 1 1 9.508 1 20s8.508 19 19 19 19-8.508 19-19S30.492 1 20 1zm0 34c-8.285 0-15-6.715-15-15S11.715 5 20 5s15 6.715 15 15-6.715 15-15 15z" fill="#4788c7"/><path d="M1.688 15a18.824 18.824 0 0 1 2.18-5h4.976C11.59 6.937 15.563 5 20 5c8.285 0 15 6.715 15 15s-6.715 15-15 15S5 28.285 5 20c0-1.758.316-3.434.871-5z" fill="#fff"/><path d="M3.5 12.5V4.207l8.293 8.293z" fill="#98ccfd"/><path d="M4 5.414L10.586 12H4V5.414M3 3v10h10z" fill="#4788c7"/><path d="M9.504 6.625a16.942 16.942 0 0 0-2.621 2.563" fill="none" stroke-width="2" stroke="#98ccfd" stroke-miterlimit="10"/><path d="M27 10l-7 10 6 6" fill="none" stroke-width="2" stroke-linecap="round" stroke="#4788c7" stroke-miterlimit="10"/><path d="M21.5 20a1.5 1.5 0 1 1-3 0 1.5 1.5 0 0 1 3 0z" fill="#4788c7"/><path d="M21 7c0 .55-.45 1-1 1s-1-.45-1-1 .45-1 1-1 1 .45 1 1zm0 26c0 .55-.45 1-1 1s-1-.45-1-1 .45-1 1-1 1 .45 1 1zm13-13c0 .55-.45 1-1 1s-1-.45-1-1 .45-1 1-1 1 .45 1 1zM8 20c0 .55-.45 1-1 1s-1-.45-1-1 .45-1 1-1 1 .45 1 1z" fill="#b6dcfe"/></svg><svg viewBox="0 0 24 24" id="redo" xmlns="http://www.w3.org/2000/svg"><path d="M18.4 10.6C16.55 8.99 14.15 8 11.5 8c-4.65 0-8.58 3.03-9.96 7.22L3.9 16a8.002 8.002 0 0 1 7.6-5.5c1.95 0 3.73.72 5.12 1.88L13 16h9V7l-3.6 3.6z"/></svg><svg viewBox="0 0 24 24" id="remove" xmlns="http://www.w3.org/2000/svg"><path d="M19 13H5v-2h14v2z"/></svg><svg viewBox="0 0 24 24" id="remove-red-eye" xmlns="http://www.w3.org/2000/svg"><path d="M12 4.5C7 4.5 2.73 7.61 1 12c1.73 4.39 6 7.5 11 7.5s9.27-3.11 11-7.5c-1.73-4.39-6-7.5-11-7.5zM12 17c-2.76 0-5-2.24-5-5s2.24-5 5-5 5 2.24 5 5-2.24 5-5 5zm0-8c-1.66 0-3 1.34-3 3s1.34 3 3 3 3-1.34 3-3-1.34-3-3-3z"/></svg><svg viewBox="0 0 24 24" id="reply" xmlns="http://www.w3.org/2000/svg"><path d="M10 9V5l-7 7 7 7v-4.1c5 0 8.5 1.6 11 5.1-1-5-4-10-11-11z"/></svg><svg viewBox="0 0 24 24" id="restore" xmlns="http://www.w3.org/2000/svg"><path d="M13 3a9 9 0 0 0-9 9H1l3.89 3.89.07.14L9 12H6c0-3.87 3.13-7 7-7s7 3.13 7 7-3.13 7-7 7c-1.93 0-3.68-.79-4.94-2.06l-1.42 1.42A8.954 8.954 0 0 0 13 21a9 9 0 0 0 0-18zm-1 5v5l4.28 2.54.72-1.21-3.5-2.08V8H12z"/></svg><svg viewBox="0 0 24 24" id="sd-storage" xmlns="http://www.w3.org/2000/svg"><path d="M18 2h-8L4.02 8 4 20c0 1.1.9 2 2 2h12c1.1 0 2-.9 2-2V4c0-1.1-.9-2-2-2zm-6 6h-2V4h2v4zm3 0h-2V4h2v4zm3 0h-2V4h2v4z"/></svg><svg viewBox="0 0 24 24" id="search" xmlns="http://www.w3.org/2000/svg"><path d="M15.5 14h-.79l-.28-.27A6.471 6.471 0 0 0 16 9.5 6.5 6.5 0 1 0 9.5 16c1.61 0 3.09-.59 4.23-1.57l.27.28v.79l5 4.99L20.49 19l-4.99-5zm-6 0C7.01 14 5 11.99 5 9.5S7.01 5 9.5 5 14 7.01 14 9.5 11.99 14 9.5 14z"/></svg><svg viewBox="0 0 40 40" id="search-custom" xmlns="http://www.w3.org/2000/svg"><path d="M3.5 38.5a1.982 1.982 0 0 1-1.414-.586A1.976 1.976 0 0 1 1.5 36.5c0-.531.207-1.035.586-1.414l18.23-17.383 1.985 1.988-17.399 18.23A1.967 1.967 0 0 1 3.5 38.5z" fill="#98ccfd"/><path d="M20.309 18.406l1.293 1.293L4.559 37.562a1.502 1.502 0 0 1-2.121 0c-.583-.585-.583-1.535-.016-2.105l17.887-17.05m.02-1.4L1.73 34.735a2.506 2.506 0 0 0 0 3.536c.489.488 1.13.73 1.77.73.64 0 1.277-.242 1.766-.73L23 19.684z" fill="#4788c7"/><path d="M26 26.5c-6.895 0-12.5-5.605-12.5-12.5S19.105 1.5 26 1.5 38.5 7.105 38.5 14 32.895 26.5 26 26.5z" fill="#dff0fe"/><path d="M26 2c6.617 0 12 5.383 12 12s-5.383 12-12 12-12-5.383-12-12S19.383 2 26 2m0-1c-7.18 0-13 5.82-13 13s5.82 13 13 13 13-5.82 13-13S33.18 1 26 1z" fill="#4788c7"/></svg><svg viewBox="0 0 491 367" id="selected-folder" xmlns="http://www.w3.org/2000/svg"><defs><path id="dla" d="M467.114.438V367H.536V.438z"/><path id="dlc" d="M0 .438V367h466.578V.438z"/><linearGradient id="dld" x1="50%" x2="50%" y1="0%" y2="100%"><stop offset="0%" stop-color="#8AECF9"/><stop offset="100%" stop-color="#52D5F0"/></linearGradient></defs><g fill="none" fill-rule="evenodd"><g transform="translate(23)"><mask id="dlb" fill="#fff"><use xlink:href="#dla"/></mask><path fill="#00B9F9" d="M170.83 49.482V25.093c0-13.616-11.038-24.655-24.655-24.655H25.191C11.575.438.536 11.477.536 25.093v317.252C.536 355.962 11.576 367 25.191 367H442.46c13.616 0 24.655-11.038 24.655-24.655V98.792c0-13.617-11.039-24.655-24.655-24.655H195.485c-13.617 0-24.655-11.038-24.655-24.655" mask="url(#dlb)"/></g><mask id="dle" fill="#fff"><use xlink:href="#dlc"/></mask><path fill="url(#dld)" d="M170.294 49.482V25.093c0-13.616-11.038-24.655-24.655-24.655H24.655C11.039.438 0 11.477 0 25.093v317.252C0 355.962 11.039 367 24.655 367h417.268c13.616 0 24.655-11.038 24.655-24.655V98.792c0-13.617-11.04-24.655-24.655-24.655H194.949c-13.617 0-24.655-11.038-24.655-24.655" mask="url(#dle)"/><circle cx="234.5" cy="220.5" r="82.5" fill="#FFF" fill-opacity=".535" fill-rule="nonzero" stroke="#10C5EC" stroke-width="3" opacity=".431"/><path stroke="#10C5EC" stroke-width="12" d="M206 221.307L224.232 240 273 190"/></g></svg><svg viewBox="0 0 40 40" id="selection-tool-custom" xmlns="http://www.w3.org/2000/svg"><path d="M17.707 24.645l-7.207 5.91V2.172L30.898 21.75l-9.218 1.184 5.824 13.695-3.969 1.715z" fill="#dff0fe"/><path d="M11 3.348l18.8 18.039-7.53.965-1.31.168.517 1.214 5.375 12.63-3.055 1.32-5.367-12.621-.524-1.227-1.031.844L11 29.5V3.348M10 1v30.613l7.508-6.16L23.27 39l4.89-2.11-5.762-13.546L32 22.114z" fill="#4788c7"/></svg><svg viewBox="0 0 24 24" id="settings" xmlns="http://www.w3.org/2000/svg"><path d="M19.43 12.98c.04-.32.07-.64.07-.98s-.03-.66-.07-.98l2.11-1.65c.19-.15.24-.42.12-.64l-2-3.46c-.12-.22-.39-.3-.61-.22l-2.49 1c-.52-.4-1.08-.73-1.69-.98l-.38-2.65A.488.488 0 0 0 14 2h-4c-.25 0-.46.18-.49.42l-.38 2.65c-.61.25-1.17.59-1.69.98l-2.49-1c-.23-.09-.49 0-.61.22l-2 3.46c-.13.22-.07.49.12.64l2.11 1.65c-.04.32-.07.65-.07.98s.03.66.07.98l-2.11 1.65c-.19.15-.24.42-.12.64l2 3.46c.12.22.39.3.61.22l2.49-1c.52.4 1.08.73 1.69.98l.38 2.65c.03.24.24.42.49.42h4c.25 0 .46-.18.49-.42l.38-2.65c.61-.25 1.17-.59 1.69-.98l2.49 1c.23.09.49 0 .61-.22l2-3.46c.12-.22.07-.49-.12-.64l-2.11-1.65zM12 15.5c-1.93 0-3.5-1.57-3.5-3.5s1.57-3.5 3.5-3.5 3.5 1.57 3.5 3.5-1.57 3.5-3.5 3.5z"/></svg><svg viewBox="0 0 40 40" id="share-custom" xmlns="http://www.w3.org/2000/svg"><path d="M21 37.5c-9.648 0-17.5-7.852-17.5-17.5S11.352 2.5 21 2.5 38.5 10.352 38.5 20 30.648 37.5 21 37.5zm0-30C14.105 7.5 8.5 13.105 8.5 20S14.105 32.5 21 32.5 33.5 26.895 33.5 20 27.895 7.5 21 7.5z" fill="#b6dcfe"/><path d="M21 3c9.375 0 17 7.625 17 17s-7.625 17-17 17S4 29.375 4 20 11.625 3 21 3m0 30c7.168 0 13-5.832 13-13S28.168 7 21 7 8 12.832 8 20s5.832 13 13 13m0-31C11.059 2 3 10.059 3 20s8.059 18 18 18 18-8.059 18-18S30.941 2 21 2zm0 30c-6.629 0-12-5.371-12-12S14.371 8 21 8s12 5.371 12 12-5.371 12-12 12z" fill="#4788c7"/><path d="M34.5 8c0 3.04-2.46 5.5-5.5 5.5s-5.5-2.46-5.5-5.5 2.46-5.5 5.5-5.5 5.5 2.46 5.5 5.5z" fill="#dff0fe"/><path d="M29 3c2.758 0 5 2.242 5 5s-2.242 5-5 5-5-2.242-5-5 2.242-5 5-5m0-1c-3.313 0-6 2.688-6 6 0 3.313 2.688 6 6 6 3.313 0 6-2.688 6-6 0-3.313-2.688-6-6-6z" fill="#4788c7"/><path d="M35.5 32c0 3.04-2.46 5.5-5.5 5.5s-5.5-2.46-5.5-5.5 2.46-5.5 5.5-5.5 5.5 2.46 5.5 5.5z" fill="#dff0fe"/><path d="M30 27c2.758 0 5 2.242 5 5s-2.242 5-5 5-5-2.242-5-5 2.242-5 5-5m0-1c-3.313 0-6 2.688-6 6 0 3.313 2.688 6 6 6 3.313 0 6-2.688 6-6 0-3.313-2.688-6-6-6z" fill="#4788c7"/><path d="M12.5 20c0 3.04-2.46 5.5-5.5 5.5S1.5 23.04 1.5 20s2.46-5.5 5.5-5.5 5.5 2.46 5.5 5.5z" fill="#dff0fe"/><path d="M7 15c2.758 0 5 2.242 5 5s-2.242 5-5 5-5-2.242-5-5 2.242-5 5-5m0-1c-3.313 0-6 2.688-6 6 0 3.313 2.688 6 6 6 3.313 0 6-2.688 6-6 0-3.313-2.688-6-6-6z" fill="#4788c7"/></svg><svg viewBox="0 0 491 367" id="shared-folder" xmlns="http://www.w3.org/2000/svg"><defs><path id="dpa" d="M467.114.438V367H.536V.438z"/><path id="dpc" d="M0 .438V367h466.578V.438z"/><linearGradient x1="50%" y1="0%" x2="50%" y2="100%" id="dpd"><stop stop-color="#8AECF9" offset="0%"/><stop stop-color="#52D5F0" offset="100%"/></linearGradient></defs><g fill="none" fill-rule="evenodd"><g transform="translate(23)"><mask id="dpb" fill="#fff"><use xlink:href="#dpa"/></mask><path d="M170.83 49.482V25.093c0-13.616-11.038-24.655-24.655-24.655H25.191C11.575.438.536 11.477.536 25.093v317.252C.536 355.962 11.576 367 25.191 367H442.46c13.616 0 24.655-11.038 24.655-24.655V98.792c0-13.617-11.039-24.655-24.655-24.655H195.485c-13.617 0-24.655-11.038-24.655-24.655" fill="#00B9F9" mask="url(#dpb)"/></g><mask id="dpe" fill="#fff"><use xlink:href="#dpc"/></mask><path d="M170.294 49.482V25.093c0-13.616-11.038-24.655-24.655-24.655H24.655C11.039.438 0 11.477 0 25.093v317.252C0 355.962 11.039 367 24.655 367h417.268c13.616 0 24.655-11.038 24.655-24.655V98.792c0-13.617-11.04-24.655-24.655-24.655H194.949c-13.617 0-24.655-11.038-24.655-24.655" fill="url(#dpd)" mask="url(#dpe)"/></g></svg><svg viewBox="0 0 491 367" id="shared-folder-file-custom" xmlns="http://www.w3.org/2000/svg"><defs><path id="dqa" d="M467.114.438V367H.536V.438z"/><path id="dqc" d="M0 .438V367h466.578V.438z"/><linearGradient id="dqd" x1="50%" x2="50%" y1="0%" y2="100%"><stop offset="0%" stop-color="#8AECF9"/><stop offset="100%" stop-color="#52D5F0"/></linearGradient></defs><g fill="none" fill-rule="evenodd"><g transform="translate(23)"><mask id="dqb" fill="#fff"><use xlink:href="#dqa"/></mask><path fill="#00B9F9" d="M170.83 49.482V25.093c0-13.616-11.038-24.655-24.655-24.655H25.191C11.575.438.536 11.477.536 25.093v317.252C.536 355.962 11.576 367 25.191 367H442.46c13.616 0 24.655-11.038 24.655-24.655V98.792c0-13.617-11.039-24.655-24.655-24.655H195.485c-13.617 0-24.655-11.038-24.655-24.655" mask="url(#dqb)"/></g><mask id="dqe" fill="#fff"><use xlink:href="#dqc"/></mask><path fill="url(#dqd)" d="M170.294 49.482V25.093c0-13.616-11.038-24.655-24.655-24.655H24.655C11.039.438 0 11.477 0 25.093v317.252C0 355.962 11.039 367 24.655 367h417.268c13.616 0 24.655-11.038 24.655-24.655V98.792c0-13.617-11.04-24.655-24.655-24.655H194.949c-13.617 0-24.655-11.038-24.655-24.655" mask="url(#dqe)"/><circle cx="234.5" cy="220.5" r="82.5" fill="#FFF" fill-opacity=".535" fill-rule="nonzero" stroke="#10C5EC" stroke-width="3" opacity=".431"/><path d="M235.633 215.627c-7.44 0-13.47-6.064-13.47-13.545 0-7.48 6.03-13.545 13.47-13.545 7.439 0 13.469 6.065 13.469 13.545 0 7.48-6.03 13.545-13.47 13.545zm0-4.926c4.734 0 8.571-3.859 8.571-8.619s-3.837-8.62-8.571-8.62-8.572 3.86-8.572 8.62 3.838 8.62 8.572 8.62zm-19.069 34.929a2.047 2.047 0 0 1-2.04 2.053 2.047 2.047 0 0 1-2.041-2.052v-23.437c0-1.133.913-2.052 2.04-2.052h38.754c1.127 0 2.04.919 2.04 2.052v23.437a2.047 2.047 0 0 1-2.04 2.052 2.047 2.047 0 0 1-2.041-2.052v-21.385h-34.672v21.385zm58.579-20.063c-5.207 0-9.429-4.08-9.429-9.112s4.222-9.112 9.429-9.112 9.428 4.08 9.428 9.112c0 5.033-4.22 9.112-9.428 9.112zm0-3.313c3.314 0 6-2.596 6-5.799 0-3.202-2.686-5.798-6-5.798s-6 2.596-6 5.798c0 3.203 2.686 5.799 6 5.799zm-13.348 23.498c0 .762-.64 1.38-1.428 1.38-.79 0-1.429-.618-1.429-1.38v-15.767c0-.762.64-1.38 1.429-1.38h27.127c.789 0 1.428.618 1.428 1.38v15.767c0 .762-.64 1.38-1.428 1.38-.79 0-1.429-.618-1.429-1.38v-14.386h-24.27v14.386zm-66.652-20.185c-5.207 0-9.429-4.08-9.429-9.112s4.222-9.112 9.429-9.112 9.428 4.08 9.428 9.112c0 5.033-4.22 9.112-9.428 9.112zm0-3.313c3.314 0 6-2.596 6-5.799 0-3.202-2.686-5.798-6-5.798s-6 2.596-6 5.798c0 3.203 2.686 5.799 6 5.799zm-13.348 23.498c0 .762-.64 1.38-1.428 1.38-.79 0-1.429-.618-1.429-1.38v-15.767c0-.762.64-1.38 1.429-1.38h27.127c.789 0 1.428.618 1.428 1.38v15.767c0 .762-.64 1.38-1.428 1.38-.79 0-1.429-.618-1.429-1.38v-14.386h-24.27v14.386z" fill="#10C5EC" fill-rule="nonzero"/></g></svg><svg viewBox="0 0 50 50" id="shield-custom" xmlns="http://www.w3.org/2000/svg"><path d="M25 0c-2.453 0-4.523 1.355-7.594 2.938-3.07 1.582-7.191 3.492-13.625 4.906L3 8.03v.781c0 15.32 5.371 25.56 10.75 31.907 5.379 6.347 10.844 8.875 10.844 8.875l.437.218.438-.218S47 38.469 47 8.812v-.78l-.781-.188C39.785 6.43 35.664 4.52 32.594 2.937 29.524 1.355 27.454 0 25 0zm0 2c1.645 0 3.55 1.105 6.688 2.719 2.98 1.531 7.171 3.41 13.25 4.843-.368 27.118-18.684 37.29-19.97 37.97-.62-.302-4.948-2.466-9.718-8.094C10.223 33.504 5.246 23.96 5.062 9.561c6.079-1.433 10.27-3.312 13.25-4.843C21.45 3.105 23.355 2 25 2zm7.688 12.625l-.532.844-8.125 12.625-5.375-4.844-.718-.656-1.344 1.468.75.688 6.187 5.625.875.781.657-1 8.78-13.625.532-.843z"/></svg><svg viewBox="0 0 24 24" id="sort" xmlns="http://www.w3.org/2000/svg"><path d="M3 18h6v-2H3v2zM3 6v2h18V6H3zm0 7h12v-2H3v2z"/></svg><svg viewBox="0 0 24 24" id="star" xmlns="http://www.w3.org/2000/svg"><path d="M12 17.27L18.18 21l-1.64-7.03L22 9.24l-7.19-.61L12 2 9.19 8.63 2 9.24l5.46 4.73L5.82 21z"/></svg><svg viewBox="0 0 24 24" id="star-border" xmlns="http://www.w3.org/2000/svg"><path d="M22 9.24l-7.19-.62L12 2 9.19 8.63 2 9.24l5.46 4.73L5.82 21 12 17.27 18.18 21l-1.63-7.03L22 9.24zM12 15.4l-3.76 2.27 1-4.28-3.32-2.88 4.38-.38L12 6.1l1.71 4.04 4.38.38-3.32 2.88 1 4.28L12 15.4z"/></svg><svg viewBox="0 0 491 367" id="starred-folder" xmlns="http://www.w3.org/2000/svg"><defs><path id="dva" d="M467.114.438V367H.536V.438z"/><path id="dvc" d="M0 .438V367h466.578V.438z"/><linearGradient id="dvd" x1="50%" x2="50%" y1="0%" y2="100%"><stop offset="0%" stop-color="#8AECF9"/><stop offset="100%" stop-color="#52D5F0"/></linearGradient></defs><g fill="none" fill-rule="evenodd"><g transform="translate(23)"><mask id="dvb" fill="#fff"><use xlink:href="#dva"/></mask><path fill="#00B9F9" d="M170.83 49.482V25.093c0-13.616-11.038-24.655-24.655-24.655H25.191C11.575.438.536 11.477.536 25.093v317.252C.536 355.962 11.576 367 25.191 367H442.46c13.616 0 24.655-11.038 24.655-24.655V98.792c0-13.617-11.039-24.655-24.655-24.655H195.485c-13.617 0-24.655-11.038-24.655-24.655" mask="url(#dvb)"/></g><mask id="dve" fill="#fff"><use xlink:href="#dvc"/></mask><path fill="url(#dvd)" d="M170.294 49.482V25.093c0-13.616-11.038-24.655-24.655-24.655H24.655C11.039.438 0 11.477 0 25.093v317.252C0 355.962 11.039 367 24.655 367h417.268c13.616 0 24.655-11.038 24.655-24.655V98.792c0-13.617-11.04-24.655-24.655-24.655H194.949c-13.617 0-24.655-11.038-24.655-24.655" mask="url(#dve)"/><circle cx="234.5" cy="220.5" r="82.5" fill="#FFF" fill-opacity=".535" fill-rule="nonzero" stroke="#10C5EC" stroke-width="3" opacity=".431"/><path stroke="#10C5EC" stroke-width="5" d="M216.605 226.098L193 211h29.274l10.515-28 9.918 28H276l-27.706 15.773L259 257l-26.211-15.289L205 257l11.605-30.902z"/></g></svg><svg viewBox="0 0 24 24" id="style" xmlns="http://www.w3.org/2000/svg"><path d="M2.53 19.65l1.34.56v-9.03l-2.43 5.86c-.41 1.02.08 2.19 1.09 2.61zm19.5-3.7L17.07 3.98a2.013 2.013 0 0 0-1.81-1.23c-.26 0-.53.04-.79.15L7.1 5.95a1.999 1.999 0 0 0-1.08 2.6l4.96 11.97a1.998 1.998 0 0 0 2.6 1.08l7.36-3.05a1.994 1.994 0 0 0 1.09-2.6zM7.88 8.75c-.55 0-1-.45-1-1s.45-1 1-1 1 .45 1 1-.45 1-1 1zm-2 11c0 1.1.9 2 2 2h1.45l-3.45-8.34v6.34z"/></svg><svg viewBox="0 0 24 24" id="subdirectory-arrow-right" xmlns="http://www.w3.org/2000/svg"><path d="M19 15l-6 6-1.42-1.42L15.17 16H4V4h2v10h9.17l-3.59-3.58L13 9l6 6z"/></svg><svg viewBox="0 0 24 24" id="subscriptions" xmlns="http://www.w3.org/2000/svg"><path d="M20 8H4V6h16v2zm-2-6H6v2h12V2zm4 10v8c0 1.1-.9 2-2 2H4c-1.1 0-2-.9-2-2v-8c0-1.1.9-2 2-2h16c1.1 0 2 .9 2 2zm-6 4l-6-3.27v6.53L16 16z"/></svg><svg viewBox="0 0 64 64" id="text-file-custom" xmlns="http://www.w3.org/2000/svg"><path d="M17.66 4a4.97 4.97 0 0 0-3.539 1.46l-8.66 8.661A4.99 4.99 0 0 0 4 17.661V57c0 1.648 1.352 3 3 3h40c1.648 0 3-1.352 3-3V46h8c1.102 0 2-.898 2-2V24c0-1.102-.898-2-2-2h-8V7c0-1.648-1.352-3-3-3zM18 6h29c.55 0 1 .45 1 1v15H16c-1.102 0-2 .898-2 2v20c0 1.102.898 2 2 2h32v11c0 .55-.45 1-1 1H7c-.55 0-1-.45-1-1V18h9c1.652 0 3-1.348 3-3zm-2 .5V15c0 .55-.45 1-1 1H6.5c.113-.164.238-.32.383-.46l8.656-8.657A2.79 2.79 0 0 1 16 6.5zM16 24h42v20H16zm8 4a1 1 0 1 0 0 2h2v9a1 1 0 1 0 2 0v-9h2a1 1 0 1 0 0-2zm20 0a1 1 0 1 0 0 2h2v9a1 1 0 1 0 2 0v-9h2a1 1 0 1 0 0-2zm-10.14.012a.954.954 0 0 0-.376.129 1.007 1.007 0 0 0-.343 1.375L35.832 34l-2.691 4.484a1.008 1.008 0 0 0 .343 1.375c.16.094.34.141.516.141a1 1 0 0 0 .86-.484L37 35.94l2.14 3.575A1 1 0 0 0 40 40c.176 0 .355-.047.516-.14.472-.286.625-.903.343-1.376L38.168 34l2.691-4.484a1.008 1.008 0 0 0-.343-1.375 1.008 1.008 0 0 0-1.375.343L37 32.06l-2.14-3.575a1.001 1.001 0 0 0-1-.472zM9 52a1 1 0 0 0-1 1v2a1 1 0 1 0 2 0v-2a1 1 0 0 0-1-1zm5 0a1 1 0 0 0-1 1v2a1 1 0 1 0 2 0v-2a1 1 0 0 0-1-1zm5 0a1 1 0 0 0-1 1v2a1 1 0 1 0 2 0v-2a1 1 0 0 0-1-1zm5 0a1 1 0 0 0-1 1v2a1 1 0 1 0 2 0v-2a1 1 0 0 0-1-1zm5 0a1 1 0 0 0-1 1v2a1 1 0 1 0 2 0v-2a1 1 0 0 0-1-1zm5 0a1 1 0 0 0-1 1v2a1 1 0 1 0 2 0v-2a1 1 0 0 0-1-1zm5 0a1 1 0 0 0-1 1v2a1 1 0 1 0 2 0v-2a1 1 0 0 0-1-1zm5 0a1 1 0 0 0-1 1v2a1 1 0 1 0 2 0v-2a1 1 0 0 0-1-1z"/></svg><svg viewBox="0 0 24 24" id="translate" xmlns="http://www.w3.org/2000/svg"><path d="M12.87 15.07l-2.54-2.51.03-.03A17.52 17.52 0 0 0 14.07 6H17V4h-7V2H8v2H1v1.99h11.17C11.5 7.92 10.44 9.75 9 11.35 8.07 10.32 7.3 9.19 6.69 8h-2c.73 1.63 1.73 3.17 2.98 4.56l-5.09 5.02L4 19l5-5 3.11 3.11.76-2.04zM18.5 10h-2L12 22h2l1.12-3h4.75L21 22h2l-4.5-12zm-2.62 7l1.62-4.33L19.12 17h-3.24z"/></svg><svg viewBox="0 0 40 40" id="trash-custom" xmlns="http://www.w3.org/2000/svg"><path d="M7.5 34.5V34L3.496 5.93V5.5H36.5V6l-3.996 27.93v.57z" fill="#dff0fe"/><path d="M35.988 6l-3.976 27.86-.012.07V34H8v-.07l-.012-.07L4.012 6h31.976M37 5H3v1l4 28v1h26v-1l4-28z" fill="#4788c7"/><path d="M3 5.5a.501.501 0 0 1-.5-.5V2c0-.277.227-.5.5-.5h34c.273 0 .5.223.5.5v3c0 .277-.227.5-.5.5z" fill="#b6dcfe"/><path d="M37 2v3H3V2h34m0-1H3c-.55 0-1 .45-1 1v3c0 .55.45 1 1 1h34c.55 0 1-.45 1-1V2c0-.55-.45-1-1-1z" fill="#4788c7"/><path d="M10 38.5A2.502 2.502 0 0 1 7.5 36v-1.5h25V36c0 1.379-1.121 2.5-2.5 2.5z" fill="#b6dcfe"/><path d="M32 35v1c0 1.102-.898 2-2 2H10c-1.102 0-2-.898-2-2v-1h24m1-1H7v2a3 3 0 0 0 3 3h20a3 3 0 0 0 3-3zm-5.738-12.227l-1.125-1.902-.707 1.547-1.703-.121 1.125 1.902h-3.23l-1.352 1.403L21.62 26h3.238c1.168 0 2.114-.496 2.594-1.363.48-.864.402-1.914-.191-2.864zm-2.672-4.644l-2.137-3.625C21.86 12.547 20.977 12 20.035 12c-.941 0-1.824.547-2.437 1.531l-1.336 2.254 1.66-.031.746 1.46 1.32-2.226a.548.548 0 0 1 .047-.07.344.344 0 0 1 .024.039l2.117 3.59 1.918.488zm-9.434 6.055l1.903-3.313-.497-1.828-1.933.434-1.895 3.3c-.59 1.008-.656 2.067-.18 2.903.481.84 1.423 1.32 2.587 1.32h3.453l-1-1.398 1-1.403h-3.446c0-.004.004-.008.008-.015z" fill="#4788c7"/></svg><svg viewBox="0 0 24 24" id="twitter-custom" xmlns="http://www.w3.org/2000/svg"><path d="M23.954 4.569a10 10 0 0 1-2.825.775 4.958 4.958 0 0 0 2.163-2.723c-.951.555-2.005.959-3.127 1.184a4.92 4.92 0 0 0-8.384 4.482C7.691 8.094 4.066 6.13 1.64 3.161a4.822 4.822 0 0 0-.666 2.475c0 1.71.87 3.213 2.188 4.096a4.904 4.904 0 0 1-2.228-.616v.061a4.923 4.923 0 0 0 3.946 4.827 4.996 4.996 0 0 1-2.212.085 4.937 4.937 0 0 0 4.604 3.417 9.868 9.868 0 0 1-6.102 2.105c-.39 0-.779-.023-1.17-.067a13.995 13.995 0 0 0 7.557 2.209c9.054 0 13.999-7.496 13.999-13.986 0-.209 0-.42-.015-.63a9.936 9.936 0 0 0 2.46-2.548l-.047-.02z"/></svg><svg viewBox="0 0 24 24" id="undo" xmlns="http://www.w3.org/2000/svg"><path d="M12.5 8c-2.65 0-5.05.99-6.9 2.6L2 7v9h9l-3.62-3.62c1.39-1.16 3.16-1.88 5.12-1.88 3.54 0 6.55 2.31 7.6 5.5l2.37-.78C21.08 11.03 17.15 8 12.5 8z"/></svg><svg viewBox="0 0 64 64" id="upload-custom" xmlns="http://www.w3.org/2000/svg"><path d="M32.188 4.016c-8.114.316-15.329 5.254-18.504 12.761-.012.016-.024.028-.032.047-.191.45-.343.91-.5 1.367-.035.094-.074.18-.105.274C5.145 20.352-.422 27.762.027 35.953.516 44.95 8.172 52 17.453 52H28v9c0 .55.45 1 1 1h6c.55 0 1-.45 1-1v-9h15.656c6.567 0 12.102-5.184 12.336-11.547.192-5.207-3.039-9.808-7.668-11.613-.05-.031-.09-.074-.148-.094-.684-.254-1.395-.418-2.114-.543-.101-.015-.199-.043-.296-.058a21.41 21.41 0 0 0 .043-6.016c-1.23-9.246-8.84-16.797-18.098-17.957a21.856 21.856 0 0 0-3.523-.156zm.84 1.988c.804 0 1.617.047 2.437.152 8.367 1.047 15.25 7.88 16.363 16.235.25 1.894.211 3.78-.082 5.625a11.91 11.91 0 0 0-1.828.164 1 1 0 1 0 .348 1.968 9.993 9.993 0 0 1 3.129-.03c.097.015.195.027.292.042 4.848.832 8.489 5.192 8.305 10.215-.074 2.035-.812 3.914-1.992 5.469V45a1 1 0 1 0-2 0v2c0 .25.102.473.254.648a9.387 9.387 0 0 1-.41.32A10.489 10.489 0 0 1 51.656 50H36V36.414l2.293 2.293a1 1 0 0 0 1.414 0l4-4A.993.993 0 0 0 44 34a.993.993 0 0 0-.293-.707l-11-11a1 1 0 0 0-1.414 0l-11 11a1 1 0 0 0 0 1.414l4 4a1 1 0 0 0 1.414 0L28 36.414V50H17.453c-2.855 0-5.527-.762-7.828-2.078A.92.92 0 0 0 10 48a1 1 0 0 0 1-1v-2a1 1 0 1 0-2 0v2c0 .387.227.71.547.879-.23-.133-.457-.266-.68-.41C8.172 47.047 7 46.05 7 46.05c-2.875-2.559-4.754-6.156-4.977-10.207-.37-6.852 4.02-13.074 10.415-15.125A21.398 21.398 0 0 0 12 25a1 1 0 1 0 2 0c0-1.844.27-3.645.781-5.387.004-.004.004-.008.008-.015.11-.375.246-.739.379-1.102.062-.18.121-.355.191-.531C18.24 10.71 25.23 6.004 33.027 6.004zm.546 3.012c-2.832-.09-5.71.562-8.199 1.918a.995.995 0 0 0 .477 1.875c.16 0 .324-.04.476-.121 2.906-1.579 6.414-2.067 9.625-1.376a1 1 0 0 0 .422-1.953 15.64 15.64 0 0 0-2.8-.343zm6.567 1.746a1 1 0 0 0-.559 1.879c.781.418 1.527.91 2.215 1.468.187.153.41.223.629.223a.998.998 0 0 0 .633-1.773 16.044 16.044 0 0 0-2.536-1.684 1.031 1.031 0 0 0-.382-.113zM32 24.414L41.586 34 39 36.586l-3.293-3.293A1 1 0 1 0 34 34v26h-4V34a1 1 0 0 0-1.707-.707L25 36.586 22.414 34zM15 44a1 1 0 0 0-1 1v2a1 1 0 1 0 2 0v-2a1 1 0 0 0-1-1zm5 0a1 1 0 0 0-1 1v2a1 1 0 1 0 2 0v-2a1 1 0 0 0-1-1zm5 0a1 1 0 0 0-1 1v2a1 1 0 1 0 2 0v-2a1 1 0 0 0-1-1zm14 0a1 1 0 0 0-1 1v2a1 1 0 1 0 2 0v-2a1 1 0 0 0-1-1zm5 0a1 1 0 0 0-1 1v2a1 1 0 1 0 2 0v-2a1 1 0 0 0-1-1zm5 0a1 1 0 0 0-1 1v2a1 1 0 1 0 2 0v-2a1 1 0 0 0-1-1zm5 0a1 1 0 0 0-1 1v2a1 1 0 1 0 2 0v-2a1 1 0 0 0-1-1z"/></svg><svg viewBox="0 0 24 24" id="upload-folder-custom" xmlns="http://www.w3.org/2000/svg"><path d="M4 4c-1.102 0-2 .898-2 2v12c0 1.102.898 2 2 2h5v-2H4V6h4.594l2 2h3.937a8.937 8.937 0 0 1-.469-2h-2.656l-2-2zm11 1c0 4.406 3.594 8 8 8v-2c-3.324 0-6-2.676-6-6zm3 0c0 2.75 2.25 5 5 5V8c-1.668 0-3-1.332-3-3zm3 0a2 2 0 0 0 2 2V5zm-9 5.656L8 16h3v6h2v-6h3zm8 2.813V18h-5v2h5c1.102 0 2-.898 2-2v-4.063a8.937 8.937 0 0 1-2-.468z"/></svg><svg viewBox="0 0 512.001 512.001" id="upload-menu-custom" xmlns="http://www.w3.org/2000/svg"><path d="M405.967 195.112c-1.069-78.061-64.902-141.239-143.213-141.239-34.835 0-68.396 12.672-94.498 35.682-23.296 20.535-39.232 47.977-45.543 78.106-.461-.005-.918-.009-1.374-.009C54.434 167.652 0 222.085 0 288.991S54.434 410.33 121.34 410.33h84.743c6.029 0 10.919-4.888 10.919-10.919 0-6.031-4.89-10.919-10.919-10.919H121.34c-54.866 0-99.502-44.636-99.502-99.501s44.636-99.501 99.502-99.501c2.923 0 6.013.157 9.448.48 5.822.545 11.049-3.596 11.842-9.396 3.932-28.82 18.161-55.327 40.067-74.638 22.111-19.492 50.542-30.226 80.056-30.226 66.935 0 121.389 54.455 121.389 121.389 0 2.41-.179 4.894-.368 7.524l-.081 1.118a10.915 10.915 0 0 0 3.287 8.604 10.914 10.914 0 0 0 8.697 3.03 87.102 87.102 0 0 1 8.708-.44c47.297 0 85.778 38.48 85.778 85.778 0 47.297-38.48 85.777-85.778 85.777h-89.111c-6.029 0-10.919 4.888-10.919 10.919 0 6.031 4.89 10.919 10.919 10.919h89.111c59.339 0 107.616-48.275 107.616-107.615-.001-58.807-47.421-106.752-106.034-107.601z"/><path d="M262.755 105.192c-45.658 0-84.742 34.121-90.914 79.367-.815 5.975 3.369 11.48 9.343 12.295.501.068.998.102 1.489.102 5.375 0 10.059-3.97 10.804-9.444 4.703-34.48 34.486-60.482 69.277-60.482 6.031 0 10.919-4.888 10.919-10.919.001-6.03-4.888-10.919-10.918-10.919zm49.655 214.86l-39.718-35.48c-6.847-6.12-17.177-6.119-24.027-.001l-39.718 35.482c-4.498 4.017-4.886 10.92-.869 15.418 4.017 4.496 10.919 4.887 15.418.869l26.264-23.462v134.331c0 6.031 4.888 10.919 10.919 10.919 6.03 0 10.919-4.888 10.919-10.919V312.876l26.265 23.463a10.873 10.873 0 0 0 7.27 2.776 10.89 10.89 0 0 0 8.148-3.645c4.015-4.498 3.626-11.4-.871-15.418z"/></svg><svg viewBox="0 0 64 64" id="video-file-custom" xmlns="http://www.w3.org/2000/svg"><path d="M23.656 4a4.96 4.96 0 0 0-3.535 1.465l-8.656 8.656A4.964 4.964 0 0 0 10 17.656V57c0 1.652 1.348 3 3 3h40c1.652 0 3-1.348 3-3V7c0-1.652-1.348-3-3-3zM24 6h29c.55 0 1 .45 1 1v50c0 .55-.45 1-1 1H13c-.55 0-1-.45-1-1V18h9c1.652 0 3-1.348 3-3zm-2 .5V15c0 .55-.45 1-1 1h-8.5c.113-.164.238-.324.379-.465l8.656-8.656c.145-.145.3-.27.465-.379zm6.023 15.316a2.078 2.078 0 0 0-1.027.247 1.998 1.998 0 0 0-1.031 1.753v18.368c0 .726.39 1.398 1.031 1.75a1.983 1.983 0 0 0 2.035-.063l14.5-9.183a1.99 1.99 0 0 0 0-3.376l-14.5-9.187a2.043 2.043 0 0 0-1.008-.309zm-.058 2L42.465 33l-14.5 9.188zM15 52c-.55 0-1 .45-1 1v2c0 .55.45 1 1 1s1-.45 1-1v-2c0-.55-.45-1-1-1zm5 0c-.55 0-1 .45-1 1v2c0 .55.45 1 1 1s1-.45 1-1v-2c0-.55-.45-1-1-1zm5 0c-.55 0-1 .45-1 1v2c0 .55.45 1 1 1s1-.45 1-1v-2c0-.55-.45-1-1-1zm5 0c-.55 0-1 .45-1 1v2c0 .55.45 1 1 1s1-.45 1-1v-2c0-.55-.45-1-1-1zm5 0c-.55 0-1 .45-1 1v2c0 .55.45 1 1 1s1-.45 1-1v-2c0-.55-.45-1-1-1zm5 0c-.55 0-1 .45-1 1v2c0 .55.45 1 1 1s1-.45 1-1v-2c0-.55-.45-1-1-1zm5 0c-.55 0-1 .45-1 1v2c0 .55.45 1 1 1s1-.45 1-1v-2c0-.55-.45-1-1-1zm5 0c-.55 0-1 .45-1 1v2c0 .55.45 1 1 1s1-.45 1-1v-2c0-.55-.45-1-1-1z"/></svg><svg viewBox="0 0 24 24" id="videocam" xmlns="http://www.w3.org/2000/svg"><path d="M17 10.5V7c0-.55-.45-1-1-1H4c-.55 0-1 .45-1 1v10c0 .55.45 1 1 1h12c.55 0 1-.45 1-1v-3.5l4 4v-11l-4 4z"/></svg><svg viewBox="0 0 24 24" id="view-comfy" xmlns="http://www.w3.org/2000/svg"><path d="M3 9h4V5H3v4zm0 5h4v-4H3v4zm5 0h4v-4H8v4zm5 0h4v-4h-4v4zM8 9h4V5H8v4zm5-4v4h4V5h-4zm5 9h4v-4h-4v4zM3 19h4v-4H3v4zm5 0h4v-4H8v4zm5 0h4v-4h-4v4zm5 0h4v-4h-4v4zm0-14v4h4V5h-4z"/></svg><svg viewBox="0 0 24 24" id="view-list" xmlns="http://www.w3.org/2000/svg"><path d="M4 14h4v-4H4v4zm0 5h4v-4H4v4zM4 9h4V5H4v4zm5 5h12v-4H9v4zm0 5h12v-4H9v4zM9 5v4h12V5H9z"/></svg><svg viewBox="0 0 24 24" id="view-module" xmlns="http://www.w3.org/2000/svg"><path d="M4 11h5V5H4v6zm0 7h5v-6H4v6zm6 0h5v-6h-5v6zm6 0h5v-6h-5v6zm-6-7h5V5h-5v6zm6-6v6h5V5h-5z"/></svg><svg viewBox="0 0 24 24" id="visibility" xmlns="http://www.w3.org/2000/svg"><path d="M12 4.5C7 4.5 2.73 7.61 1 12c1.73 4.39 6 7.5 11 7.5s9.27-3.11 11-7.5c-1.73-4.39-6-7.5-11-7.5zM12 17c-2.76 0-5-2.24-5-5s2.24-5 5-5 5 2.24 5 5-2.24 5-5 5zm0-8c-1.66 0-3 1.34-3 3s1.34 3 3 3 3-1.34 3-3-1.34-3-3-3z"/></svg><svg viewBox="0 0 24 24" id="warning" xmlns="http://www.w3.org/2000/svg"><path d="M1 21h22L12 2 1 21zm12-3h-2v-2h2v2zm0-4h-2v-4h2v4z"/></svg><svg viewBox="0 0 24 24" id="web" xmlns="http://www.w3.org/2000/svg"><path d="M20 4H4c-1.1 0-1.99.9-1.99 2L2 18c0 1.1.9 2 2 2h16c1.1 0 2-.9 2-2V6c0-1.1-.9-2-2-2zm-5 14H4v-4h11v4zm0-5H4V9h11v4zm5 5h-4V9h4v9z"/></svg></defs></svg>