<svg xmlns="http://www.w3.org/2000/svg" xmlns:xlink="http://www.w3.org/1999/xlink" width="124" height="124" viewBox="0 0 124 124">
    <defs>
        <path id="a" d="M102.117 94.883l-23.25-23.25c5.683-7.233 9.3-17.05 9.3-27.383C88.167 19.967 68.533.333 44.25.333S.333 19.967.333 44.25 19.967 88.167 44.25 88.167c10.333 0 19.633-3.617 27.383-9.3l23.25 23.25c1.034 1.033 2.584 1.55 3.617 1.55s2.583-.517 3.617-1.55c2.066-2.067 2.066-5.167 0-7.234zM10.667 44.25c0-18.6 14.983-33.583 33.583-33.583 18.6 0 33.583 14.983 33.583 33.583 0 9.3-3.616 17.567-9.816 23.767-6.2 6.2-14.467 9.816-23.767 9.816-18.6 0-33.583-14.983-33.583-33.583z"/>
    </defs>
    <g fill="none" fill-rule="evenodd" transform="translate(10 10)">
        <mask id="b" fill="#fff">
            <use xlink:href="#a"/>
        </mask>
        <use fill="#000" fill-rule="nonzero" xlink:href="#a"/>
        <g fill="#607D8B" mask="url(#b)">
            <path d="M-10-10h124v124H-10z"/>
        </g>
    </g>
</svg>
