<svg id="Layer_1" data-name="Layer 1" xmlns="http://www.w3.org/2000/svg" viewBox="0 0 2000 2000"><defs><style>.cls-1{fill:#dd4943;}.cls-2{fill:#fc5753;}.cls-3{opacity:0.5;}</style></defs><title>active_close_mac</title><path class="cls-1" d="M1000,2000C448.6,2000,0,1551.4,0,1000S448.6,0,1000,0,2000,448.6,2000,1000,1551.4,2000,1000,2000Zm0-1836.73c-461.38,0-836.73,375.35-836.73,836.73S538.62,1836.73,1000,1836.73s836.73-375.35,836.73-836.73S1461.38,163.27,1000,163.27Z"/><circle class="cls-2" cx="1000" cy="1000" r="918.37"/><polygon class="cls-3" points="1316.84 571.94 989.8 898.99 662.75 571.94 561.74 672.96 888.78 1000 561.74 1327.05 662.75 1428.06 989.8 1101.02 1316.84 1428.06 1417.86 1327.05 1090.81 1000 1417.86 672.96 1316.84 571.94"/></svg>