<svg id="Choice_Coupled_" data-name="Choice Coupled " xmlns="http://www.w3.org/2000/svg" xmlns:xlink="http://www.w3.org/1999/xlink" width="75" height="75" viewBox="0 0 75 75">
  <defs>
    <style>
      .cls-1 {
        fill: none;
      }

      .cls-2 {
        clip-path: url(#clip-path);
      }

      .cls-3, .cls-4 {
        fill: #feb155;
      }

      .cls-4 {
        fill-opacity: 0;
      }

      .cls-5 {
        fill: #fff;
      }

      .cls-6 {
        fill: #ffcc8e;
      }
    </style>
    <clipPath id="clip-path">
      <rect class="cls-1" width="75" height="75"/>
    </clipPath>
  </defs>
  <title>freedom-build</title>
  <g class="cls-2">
    <g>
      <circle class="cls-3" cx="37.5" cy="37.5" r="37.5"/>
      <g>
        <path id="Rounded_Rectangle_771_copy" data-name="Rounded Rectangle 771 copy" class="cls-4" d="M37.2,25.5h9.5a.68.68,0,0,1,.7.7v9.5a.68.68,0,0,1-.7.7H37.2a.68.68,0,0,1-.7-.7V26.2A.68.68,0,0,1,37.2,25.5Z"/>
        <path class="cls-5" d="M19.5,19.5h14l1,8-5,2-2,4v2l-7-1-2-1Z"/>
        <path d="M46.9,35.6V32.8a6.19,6.19,0,0,0-6.3-6.2H36.2V17.5H17.5V36.2h9.1v4.4a6.32,6.32,0,0,0,6.2,6.3h2.8A10.9,10.9,0,1,0,46.9,35.6ZM26.6,32.8v.3H20.7V20.6H33.2v5.9h-.3A6.4,6.4,0,0,0,26.6,32.8Zm6.2,11a3.12,3.12,0,0,1-3.1-3.1V32.9a3.12,3.12,0,0,1,3.1-3.1h7.8a3.12,3.12,0,0,1,3.1,3.1V36A11,11,0,0,0,36,43.8ZM46.6,54.4a7.8,7.8,0,1,1,7.8-7.8A7.81,7.81,0,0,1,46.6,54.4Z"/>
        <circle class="cls-6" cx="46.5" cy="46.5" r="9"/>
        <path id="Shape_1_copy" data-name="Shape 1 copy" d="M46.9,35.6V32.8a6.19,6.19,0,0,0-6.3-6.2H36.2V17.5H17.5V36.2h9.1v4.4a6.32,6.32,0,0,0,6.2,6.3h2.8A10.9,10.9,0,1,0,46.9,35.6ZM26.6,32.8v.3H20.7V20.6H33.2v5.9h-.3A6.4,6.4,0,0,0,26.6,32.8Zm6.2,11a3.12,3.12,0,0,1-3.1-3.1V32.9a3.12,3.12,0,0,1,3.1-3.1h7.8a3.12,3.12,0,0,1,3.1,3.1V36A11,11,0,0,0,36,43.8ZM46.6,54.4a7.8,7.8,0,1,1,7.8-7.8A7.81,7.81,0,0,1,46.6,54.4Z"/>
      </g>
    </g>
  </g>
</svg>
