<svg id="Layer_1" data-name="Layer 1" xmlns="http://www.w3.org/2000/svg" xmlns:xlink="http://www.w3.org/1999/xlink" width="75" height="75" viewBox="0 0 75 75">
  <defs>
    <style>
      .cls-1 {
        fill: none;
      }

      .cls-2 {
        clip-path: url(#clip-path);
      }

      .cls-3 {
        fill: #39dcb1;
      }

      .cls-4 {
        stroke: #000;
        stroke-miterlimit: 10;
        stroke-width: 0.5px;
      }

      .cls-5 {
        fill: #49e8bb;
      }

      .cls-6 {
        fill: #fff;
      }
    </style>
    <clipPath id="clip-path">
      <rect class="cls-1" width="75" height="75"/>
    </clipPath>
  </defs>
  <title>manage-expert</title>
  <g class="cls-2">
    <g>
      <circle class="cls-3" cx="37.5" cy="37.5" r="37.5"/>
      <path class="cls-4" d="M38,36.08H49.59a8.51,8.51,0,0,1,8.9,8.1q0,.27,0,.53c.06,2.77,0,5.55,0,8.32a1.71,1.71,0,1,1-3.41,0V44.71a5,5,0,0,0-4.78-5.21H26.23A5,5,0,0,0,21,44.78V53a1.72,1.72,0,1,1-3.41.06c0-3-.08-6.08.08-9.11a8.35,8.35,0,0,1,8.13-7.81c4.08-.07,8.16,0,12.25,0Z"/>
      <path class="cls-5" d="M39.31,56.81l2.44.25s.25-1.69.31-1.94a29.1,29.1,0,0,1,.75-4.06c.25-.19,2.13.38,1.06-.94s.88-.75-1.37-1.37-2.81-.81-2.87-1A13.62,13.62,0,0,0,38,46.44a3.73,3.73,0,0,0-1.19,0c-.19.13-1.5,2.5-1.5,2.5l-3.25.69c.69,1.19,1.25,1.31,1.25,2.31v2.69c0,1,0,1.31.06,2.13a1.29,1.29,0,0,0,1.06,1.13c.19,0,1.75-.56,1.75-.56Z"/>
      <path d="M45.85,51a1.64,1.64,0,0,0,.41-1.78,1.62,1.62,0,0,0-1.43-1.13c-1-.13-2.11-.29-3.16-.4a1.1,1.1,0,0,1-1-.7c-.44-1-1-1.9-1.44-2.84a1.7,1.7,0,0,0-1.57-1,1.67,1.67,0,0,0-1.54,1c-.49,1-1,2.06-1.47,3.07a1,1,0,0,1-.6.45c-1.09.21-2.18.37-3.28.54a1.73,1.73,0,0,0-1.53,1.28,1.69,1.69,0,0,0,.56,1.85c.77.73,1.53,1.48,2.32,2.19a1,1,0,0,1,.38,1c-.18,1-.34,2-.5,3.08a1.74,1.74,0,0,0,2.61,1.92c.94-.53,1.87-1,2.84-1.53a1.15,1.15,0,0,1,.87,0c1,.46,2,1,3,1.48a1.7,1.7,0,0,0,1.67,0,1.87,1.87,0,0,0,.85-2c-.2-1.07-.41-2.14-.58-3.21a1.1,1.1,0,0,1,.25-.81C44.24,52.61,45.06,51.82,45.85,51Zm-4.1-.08c-1.51,1.24-2.13,2.66-1.38,4.57a.06.06,0,0,1-.09.08,3.7,3.7,0,0,0-4.86.23A9.57,9.57,0,0,0,35.36,53a9,9,0,0,0-1.64-2.17A3.56,3.56,0,0,0,37.66,48h.12a3.77,3.77,0,0,0,3.93,2.78.06.06,0,0,1,0,.1Z"/>
      <path class="cls-4" d="M38.11,31a8.57,8.57,0,1,1,.05,0Zm5-8.47A5.1,5.1,0,1,0,38,27.57a5.1,5.1,0,0,0,5.15-5.07Z"/>
      <path class="cls-6" d="M43.11,22.5a5.08,5.08,0,1,1,0-.07Z"/>
    </g>
  </g>
</svg>
