<?xml version="1.0" encoding="utf-8"?>
<!-- Generator: Adobe Illustrator 16.0.0, SVG Export Plug-In . SVG Version: 6.00 Build 0)  -->
<!DOCTYPE svg PUBLIC "-//W3C//DTD SVG 1.0//EN" "http://www.w3.org/TR/2001/REC-SVG-20010904/DTD/svg10.dtd">
<svg version="1.0" id="Choice_Coupled_" xmlns="http://www.w3.org/2000/svg" xmlns:xlink="http://www.w3.org/1999/xlink" x="0px"
	 y="0px" width="75px" height="75px" viewBox="0 0 75 75" enable-background="new 0 0 75 75" xml:space="preserve">
<rect fill="none" width="75" height="75"/>
<rect fill="none" width="75" height="75"/>
<g>
	<defs>
		<rect id="SVGID_1_" width="75" height="75"/>
	</defs>
	<clipPath id="SVGID_2_">
		<use xlink:href="#SVGID_1_"  overflow="visible"/>
	</clipPath>
	<g clip-path="url(#SVGID_2_)">
		<defs>
			<rect id="SVGID_3_" width="75" height="75"/>
		</defs>
		<clipPath id="SVGID_4_">
			<use xlink:href="#SVGID_3_"  overflow="visible"/>
		</clipPath>
		<g clip-path="url(#SVGID_4_)">
			<circle fill="#B764D8" cx="37.5" cy="37.5" r="37.5"/>
			<g>
				<path fill="#FFFFFF" d="M37.5,45.7c-6.9,0-13.8,0-20.7,0c-0.4,0-0.6-0.101-0.8-0.5c-4.101-12,1.8-24.9,13.5-29.4
					c9.899-3.8,21.3,0.1,27,9.1c2.6,4.1,3.8,8.7,3.6,13.6c-0.1,2.3-0.5,4.6-1.3,6.8c-0.1,0.4-0.3,0.4-0.7,0.4
					C51.3,45.7,44.399,45.7,37.5,45.7z M34.2,37.399c0,1.801,1.399,3.301,3.199,3.301c0.101,0,0.2,0,0.301,0
					c1.899-0.101,3.3-1.9,3-3.801c0-0.199,0.1-0.399,0.199-0.6c1.5-1.6,3.101-3.1,4.601-4.7c1.899-1.9,3.8-3.8,5.6-5.7
					c0.601-0.6,0.7-1.3,0.3-2c-0.3-0.6-1-1-1.8-0.8c-0.399,0.1-0.7,0.3-1,0.6c-3.399,3.4-6.7,6.8-10,10.2
					c-0.2,0.2-0.5,0.4-0.8,0.301C36,33.899,34.3,35.5,34.2,37.399L34.2,37.399z M35.899,21L35.899,21c0,0.5,0,1.1,0,1.6
					c0,0.9,0.7,1.6,1.601,1.7c0.899,0,1.6-0.7,1.6-1.6c0-1.1,0-2.2,0-3.3c0-0.9-0.7-1.6-1.6-1.7c-0.9,0-1.601,0.7-1.601,1.6
					C35.899,19.9,35.899,20.4,35.899,21L35.899,21z M21.2,35.8c-0.5,0-1.101,0-1.601,0c-0.899,0.1-1.6,0.8-1.5,1.7
					c0,0.8,0.7,1.5,1.601,1.6c1.1,0,2.199,0,3.199,0c0.9-0.1,1.601-0.8,1.5-1.8c-0.1-0.8-0.699-1.5-1.5-1.5
					C22.3,35.8,21.8,35.8,21.2,35.8L21.2,35.8z M53.7,39.1L53.7,39.1c0.6,0,1.199,0,1.699,0c0.9-0.1,1.601-0.899,1.5-1.8
					c-0.1-0.8-0.699-1.4-1.5-1.5c-1.1,0-2.199,0-3.3,0c-0.899,0.1-1.6,0.9-1.5,1.8c0.101,0.8,0.7,1.5,1.5,1.5
					C52.7,39.1,53.2,39.1,53.7,39.1L53.7,39.1z M28.899,26.9c-0.1-0.3-0.199-0.7-0.5-1c-0.8-0.9-1.6-1.7-2.5-2.6
					c-0.6-0.6-1.6-0.5-2.199,0.1C23.1,24,23,25,23.6,25.6c0.8,0.9,1.7,1.8,2.5,2.6c0.5,0.5,1.101,0.5,1.7,0.2
					C28.399,28.2,28.8,27.7,28.899,26.9z"/>
				<path opacity="0.5" fill="#B764D8" enable-background="new    " d="M17.899,49h39.2c-3.1,5.8-10.3,11.5-19.7,11.5
					C28,60.5,20.899,54.8,17.899,49z"/>
				<path stroke="#000000" stroke-width="0.25" stroke-miterlimit="10" d="M35.899,11.1H39.2c0.1,0,0.3,0.1,0.399,0.1
					c1.601,0.3,3.3,0.4,4.8,0.9C54.7,15.3,61,22.3,63.2,33c0.199,1,0.3,1.899,0.399,2.899V39.2c0,0.1-0.1,0.3-0.1,0.399
					c-0.2,2.5-0.7,5-1.7,7.4C58.1,56.1,51.5,61.6,42,63.5c-0.9,0.2-1.9,0.3-2.8,0.399h-3.301c-0.1,0-0.3-0.1-0.399-0.1
					c-1.601-0.3-3.3-0.4-4.8-0.9C21.1,60.3,13.6,51.899,11.899,42c-0.199-1-0.3-1.9-0.399-2.9v-3.3c0-0.1,0.1-0.3,0.1-0.4
					c0.3-1.6,0.4-3.2,0.8-4.8C15,20.7,23.1,13.3,33.1,11.5C34,11.3,34.899,11.2,35.899,11.1z M37.5,45.7c6.899,0,13.899,0,20.8,0
					c0.3,0,0.5,0,0.7-0.4c0.8-2.2,1.2-4.5,1.3-6.8c0.2-4.9-1-9.4-3.6-13.6c-5.7-9-17.101-12.9-27-9.1
					C17.899,20.3,11.899,33.2,16,45.2c0.1,0.399,0.3,0.5,0.8,0.5C23.7,45.7,30.6,45.7,37.5,45.7L37.5,45.7z M17.899,49
					C21,54.7,28.1,60.5,37.5,60.5c9.399,0,16.6-5.7,19.7-11.5H17.899z"/>
				<path stroke="#000000" stroke-width="0.25" stroke-miterlimit="10" d="M34.2,37.399c0-2,1.699-3.5,3.6-3.199
					c0.4,0.1,0.6,0,0.8-0.301c3.3-3.399,6.7-6.8,10-10.2c0.3-0.3,0.601-0.5,1-0.6c0.7-0.2,1.4,0.2,1.8,0.8c0.4,0.6,0.2,1.4-0.3,2
					c-1.899,1.9-3.8,3.8-5.6,5.7c-1.5,1.6-3.101,3.101-4.601,4.7c-0.1,0.2-0.199,0.4-0.199,0.6c0.3,1.9-1.101,3.7-3,3.801
					c-1.801,0.1-3.4-1.301-3.5-3.101C34.2,37.6,34.2,37.5,34.2,37.399z"/>
				<path stroke="#000000" stroke-width="0.25" stroke-miterlimit="10" d="M35.899,21c0-0.5,0-1.1,0-1.6c0-1,0.7-1.7,1.601-1.6
					c0.899,0,1.6,0.7,1.6,1.7c0,1.1,0,2.2,0,3.3c0,1-0.7,1.7-1.6,1.6c-0.9,0-1.601-0.7-1.601-1.7C35.899,22.1,35.899,21.5,35.899,21
					L35.899,21z"/>
				<path stroke="#000000" stroke-width="0.25" stroke-miterlimit="10" d="M21.2,35.8c0.5,0,1.1,0,1.6,0c0.9,0.1,1.6,0.8,1.5,1.8
					c-0.1,0.8-0.7,1.5-1.5,1.5c-1.1,0-2.2,0-3.2,0c-0.899,0-1.6-0.8-1.6-1.7c0-0.8,0.7-1.5,1.6-1.6C20.2,35.8,20.7,35.8,21.2,35.8z"
					/>
				<path stroke="#000000" stroke-width="0.25" stroke-miterlimit="10" d="M53.7,39.1c-0.5,0-1.101,0-1.601,0
					c-0.899-0.1-1.6-0.8-1.5-1.7c0-0.8,0.7-1.5,1.5-1.5c1.101,0,2.2,0,3.3,0C56.3,36,57,36.8,56.899,37.7
					c-0.1,0.8-0.699,1.399-1.5,1.5C54.899,39.1,54.3,39.1,53.7,39.1L53.7,39.1z"/>
				<path stroke="#000000" stroke-width="0.25" stroke-miterlimit="10" d="M28.899,26.9c-0.1,0.7-0.399,1.2-1,1.5
					c-0.6,0.3-1.199,0.2-1.699-0.2c-0.9-0.8-1.7-1.7-2.5-2.6C23.1,25,23.2,24,23.8,23.4s1.6-0.6,2.2-0.1c0.899,0.8,1.7,1.7,2.5,2.6
					C28.6,26.2,28.7,26.6,28.899,26.9z"/>
			</g>
		</g>
	</g>
</g>
</svg>
